o convex_0
v 1.184044 0.828568 -0.545613
v 1.111431 0.885292 -0.518380
v 1.111431 0.885292 -0.513841
v 1.231693 0.957892 -0.588706
v 1.245309 0.935194 -0.507042
v 1.122780 0.942002 -0.593245
v 1.245309 0.862608 -0.593254
v 1.163628 0.969220 -0.509303
v 1.140930 0.844458 -0.595523
v 1.227159 0.842184 -0.511572
v 1.140930 0.839910 -0.513841
v 1.170443 0.973768 -0.590976
v 1.127328 0.946536 -0.509303
v 1.204461 0.833102 -0.595515
v 1.208995 0.966960 -0.507042
v 1.254390 0.892100 -0.509303
v 1.254390 0.921578 -0.590976
v 1.115979 0.878484 -0.595523
v 1.111431 0.912496 -0.534266
v 1.195379 0.828568 -0.513841
v 1.150012 0.966960 -0.590976
v 1.197646 0.973768 -0.584167
v 1.122780 0.858060 -0.513841
v 1.163628 0.833116 -0.593245
v 1.249843 0.873950 -0.509303
v 1.254390 0.885292 -0.590976
v 1.113712 0.919304 -0.593245
v 1.168162 0.828568 -0.513841
v 1.115979 0.928386 -0.511572
v 1.115979 0.885292 -0.511572
v 1.224878 0.842184 -0.593245
v 1.231693 0.953358 -0.507042
v 1.190845 0.971494 -0.509303
v 1.138663 0.957878 -0.509303
v 1.215810 0.835376 -0.511572
v 1.245309 0.942002 -0.579629
v 1.252109 0.921578 -0.516111
v 1.125047 0.860334 -0.595523
v 1.113712 0.892100 -0.595523
v 1.218077 0.966960 -0.588706
v 1.240775 0.855786 -0.511572
v 1.134129 0.955618 -0.590976
v 1.179510 0.964686 -0.507042
v 1.243042 0.878484 -0.593254
v 1.179510 0.830842 -0.595515
v 1.238494 0.853526 -0.586437
v 1.154560 0.833116 -0.531997
v 1.240775 0.871676 -0.509303
v 1.131862 0.848992 -0.547883
v 1.154560 0.966960 -0.511572
v 1.115979 0.871690 -0.534266
v 1.220344 0.962412 -0.516111
v 1.249843 0.871676 -0.511572
v 1.254390 0.907962 -0.509303
v 1.252109 0.928386 -0.590976
v 1.111431 0.912496 -0.511572
v 1.177243 0.973768 -0.590976
v 1.111431 0.903428 -0.561482
v 1.179510 0.973768 -0.559204
v 1.211276 0.833102 -0.531997
v 1.240775 0.944276 -0.516111
v 1.204461 0.835376 -0.511572
v 1.150012 0.837650 -0.581898
v 1.172709 0.971494 -0.511572
f 33 59 64 
f 2 3 19 
f 1 14 20 
f 12 6 21 
f 16 5 25 
f 7 17 26 
f 17 16 26 
f 1 20 28 
f 13 6 29 
f 6 27 29 
f 27 19 29 
f 3 23 30 
f 23 11 30 
f 14 7 31 
f 15 5 32 
f 15 22 33 
f 10 25 35 
f 28 20 35 
f 31 10 35 
f 36 5 37 
f 18 9 38 
f 14 9 39 
f 18 2 39 
f 9 18 39 
f 27 6 39 
f 22 15 40 
f 25 10 41 
f 6 13 42 
f 21 6 42 
f 13 34 42 
f 34 21 42 
f 5 15 43 
f 13 30 43 
f 33 8 43 
f 15 33 43 
f 34 13 43 
f 8 34 43 
f 7 14 44 
f 17 7 44 
f 14 39 44 
f 14 1 45 
f 9 14 45 
f 24 9 45 
f 1 28 45 
f 28 24 45 
f 31 7 46 
f 10 31 46 
f 7 41 46 
f 41 10 46 
f 28 11 47 
f 24 28 47 
f 25 5 48 
f 35 25 48 
f 5 43 48 
f 43 30 48 
f 9 11 49 
f 11 23 49 
f 38 9 49 
f 23 38 49 
f 8 12 50 
f 12 21 50 
f 34 8 50 
f 21 34 50 
f 3 2 51 
f 2 18 51 
f 23 3 51 
f 18 38 51 
f 38 23 51 
f 32 4 52 
f 15 32 52 
f 4 40 52 
f 40 15 52 
f 16 25 53 
f 26 16 53 
f 7 26 53 
f 41 7 53 
f 25 41 53 
f 5 16 54 
f 16 17 54 
f 37 5 54 
f 17 37 54 
f 4 36 55 
f 37 17 55 
f 36 37 55 
f 40 4 55 
f 17 44 55 
f 19 3 56 
f 13 29 56 
f 29 19 56 
f 30 13 56 
f 3 30 56 
f 6 12 57 
f 12 22 57 
f 39 6 57 
f 22 40 57 
f 44 39 57 
f 40 55 57 
f 55 44 57 
f 2 19 58 
f 19 27 58 
f 39 2 58 
f 27 39 58 
f 22 12 59 
f 33 22 59 
f 20 14 60 
f 14 31 60 
f 35 20 60 
f 31 35 60 
f 4 32 61 
f 32 5 61 
f 36 4 61 
f 5 36 61 
f 11 28 62 
f 30 11 62 
f 28 35 62 
f 35 48 62 
f 48 30 62 
f 11 9 63 
f 9 24 63 
f 47 11 63 
f 24 47 63 
f 12 8 64 
f 8 33 64 
f 59 12 64 
