o convex_0
v 0.024348 0.204705 0.011171
v -0.034019 0.101863 -0.080536
v -0.034019 0.107430 -0.080536
v -0.059036 0.151917 0.061189
v 0.018790 0.101863 0.069533
v -0.059036 0.185250 -0.038847
v 0.018790 0.107441 -0.080536
v -0.039569 0.201916 0.047293
v -0.034019 0.101863 0.069533
v 0.007673 0.207471 -0.022175
v 0.007673 0.182450 0.058413
v -0.059036 0.135240 -0.013831
v -0.039569 0.215827 -0.002725
v -0.059036 0.182450 0.058413
v 0.027131 0.188016 0.041740
v 0.007673 0.213027 0.027844
v 0.027131 0.188016 -0.024951
v 0.024348 0.118552 -0.002725
v 0.007673 0.190805 -0.038847
v 0.018790 0.101863 -0.080536
v -0.059036 0.140795 -0.041624
v -0.039569 0.199138 -0.033280
v -0.039569 0.215827 0.019500
v 0.007673 0.215827 0.002827
v -0.056253 0.176894 0.061189
v -0.059036 0.140795 0.058413
v 0.018790 0.110218 0.069533
v -0.042353 0.110218 0.025067
v -0.056253 0.179683 -0.044400
v 0.007673 0.193572 0.052845
v -0.059036 0.188027 0.030620
v 0.024348 0.124107 0.033396
v 0.027131 0.201916 -0.005502
v -0.039569 0.213027 -0.013831
v 0.007673 0.174128 0.061189
v -0.059036 0.135240 0.030620
v -0.034019 0.112985 0.069533
v -0.039569 0.210260 0.036173
v 0.007673 0.207471 0.038949
v -0.059036 0.171339 -0.044400
v 0.027131 0.201916 0.022276
v -0.042353 0.190805 0.055636
v 0.024348 0.174117 0.050069
v 0.007673 0.213027 -0.011054
v 0.018790 0.165783 -0.047176
v 0.024348 0.124107 -0.016607
v -0.059036 0.188027 -0.016607
v -0.042353 0.110218 -0.008278
v 0.007673 0.215827 0.013947
v -0.020119 0.204705 -0.027727
v 0.010448 0.112985 0.069533
v -0.059036 0.185250 0.055636
v 0.024348 0.135229 0.044516
v -0.020119 0.176894 0.061189
v -0.059036 0.151917 -0.044400
v -0.003452 0.199138 -0.033280
v 0.027131 0.185239 -0.024951
v -0.039569 0.204705 -0.027727
v 0.024348 0.118552 0.019500
v -0.017336 0.185250 0.058413
v -0.056253 0.185250 -0.041624
v -0.056253 0.185250 0.058413
v 0.027131 0.196360 0.033396
v 0.027131 0.196360 -0.016607
f 33 17 64 
f 2 3 7 
f 2 5 9 
f 4 6 12 
f 6 4 14 
f 5 2 20 
f 2 7 20 
f 7 17 20 
f 18 5 20 
f 2 12 21 
f 12 6 21 
f 13 23 24 
f 14 4 25 
f 9 4 26 
f 4 12 26 
f 9 5 27 
f 5 15 27 
f 2 9 28 
f 11 15 30 
f 6 14 31 
f 23 13 31 
f 15 17 33 
f 24 1 33 
f 6 13 34 
f 9 26 36 
f 26 12 36 
f 28 9 36 
f 12 28 36 
f 4 9 37 
f 25 4 37 
f 9 27 37 
f 16 23 38 
f 8 30 39 
f 30 15 39 
f 38 8 39 
f 16 38 39 
f 3 2 40 
f 21 6 40 
f 29 3 40 
f 6 29 40 
f 33 1 41 
f 15 33 41 
f 30 8 42 
f 15 11 43 
f 27 15 43 
f 11 35 43 
f 35 27 43 
f 13 24 44 
f 33 10 44 
f 24 33 44 
f 34 13 44 
f 10 34 44 
f 17 7 45 
f 7 19 45 
f 19 17 45 
f 18 20 46 
f 13 6 47 
f 6 31 47 
f 31 13 47 
f 12 2 48 
f 2 28 48 
f 28 12 48 
f 23 16 49 
f 24 23 49 
f 1 24 49 
f 16 41 49 
f 41 1 49 
f 34 10 50 
f 27 35 51 
f 25 37 51 
f 37 27 51 
f 31 14 52 
f 23 31 52 
f 38 23 52 
f 15 5 53 
f 5 32 53 
f 32 15 53 
f 25 51 54 
f 51 35 54 
f 2 21 55 
f 40 2 55 
f 21 40 55 
f 10 19 56 
f 19 22 56 
f 50 10 56 
f 22 50 56 
f 17 15 57 
f 20 17 57 
f 18 46 57 
f 46 20 57 
f 6 34 58 
f 50 22 58 
f 34 50 58 
f 5 18 59 
f 32 5 59 
f 15 32 59 
f 57 15 59 
f 18 57 59 
f 11 30 60 
f 35 11 60 
f 30 42 60 
f 54 35 60 
f 25 54 60 
f 7 3 61 
f 19 7 61 
f 22 19 61 
f 3 29 61 
f 29 6 61 
f 6 58 61 
f 58 22 61 
f 14 25 62 
f 8 38 62 
f 42 8 62 
f 52 14 62 
f 38 52 62 
f 25 60 62 
f 60 42 62 
f 39 15 63 
f 16 39 63 
f 41 16 63 
f 15 41 63 
f 19 10 64 
f 17 19 64 
f 10 33 64 
o convex_1
v 0.074363 0.076847 0.027849
v -0.014567 0.082410 -0.088890
v -0.000654 0.076847 -0.077745
v -0.070150 0.082410 0.055641
v 0.018780 0.101863 0.072323
v 0.018780 0.101863 -0.080549
v -0.086832 0.099081 -0.016590
v 0.088276 0.096299 -0.027734
v -0.072919 0.076847 -0.022179
v 0.021566 0.076847 0.075091
v 0.060467 0.079628 -0.069422
v -0.039572 0.099081 0.080664
v 0.074363 0.096299 0.055641
v -0.034018 0.101863 -0.080549
v -0.070150 0.082410 -0.055526
v 0.018780 0.082410 0.089005
v 0.091062 0.079628 -0.013838
v -0.078474 0.099081 0.041745
v -0.039572 0.076847 0.066768
v 0.071594 0.079628 0.058409
v -0.034018 0.101863 0.072323
v -0.086832 0.085187 0.016704
v 0.049375 0.096299 -0.077745
v 0.029907 0.096299 0.086201
v 0.091062 0.096299 0.016704
v -0.025677 0.082410 0.086201
v 0.066039 0.076847 -0.044399
v -0.070150 0.099081 -0.055526
v 0.018780 0.096299 -0.088890
v -0.006209 0.099081 0.089005
v -0.045127 0.082410 -0.077745
v 0.029907 0.082410 -0.086086
v -0.072919 0.076847 0.022294
v 0.088276 0.079628 0.025063
v -0.084029 0.085187 -0.027734
v -0.047896 0.076847 -0.061063
v 0.074363 0.096299 -0.055526
v 0.082704 0.079628 -0.041630
v 0.052143 0.079628 0.075091
v 0.057698 0.096299 0.072323
v -0.053468 0.082410 0.072323
v -0.070150 0.099081 0.055641
v -0.025677 0.099081 -0.086086
v -0.086832 0.099081 0.016704
v -0.053468 0.099081 -0.072208
v 0.085490 0.096299 0.036190
v 0.049375 0.079628 -0.077745
v -0.078474 0.082410 0.041745
v -0.006209 0.099081 -0.088890
v -0.017336 0.076847 0.075091
v 0.082704 0.079628 0.041745
v 0.046589 0.076847 0.063964
v 0.038248 0.076847 -0.069422
v -0.059023 0.076847 0.050068
v -0.078474 0.099081 -0.041630
v 0.018780 0.082410 -0.088890
v -0.086832 0.085187 -0.016590
v 0.091062 0.096299 -0.016590
v 0.077149 0.076847 -0.019376
v -0.011781 0.082410 0.089005
v -0.075705 0.076847 0.005612
v -0.028463 0.076847 -0.072208
v 0.038248 0.082410 0.083432
v 0.091062 0.079628 0.013953
f 123 81 128 
f 67 65 73 
f 73 65 74 
f 69 70 78 
f 73 74 83 
f 69 78 85 
f 78 71 85 
f 70 69 89 
f 65 67 91 
f 70 87 93 
f 69 85 94 
f 85 76 94 
f 88 69 94 
f 80 88 94 
f 76 90 94 
f 93 87 96 
f 73 83 97 
f 79 73 99 
f 67 73 100 
f 73 79 100 
f 79 95 100 
f 70 72 101 
f 87 70 101 
f 75 87 101 
f 72 81 102 
f 91 75 102 
f 101 72 102 
f 75 101 102 
f 80 74 103 
f 77 69 104 
f 84 77 104 
f 69 88 104 
f 103 84 104 
f 90 76 105 
f 83 90 105 
f 82 68 106 
f 76 85 106 
f 85 82 106 
f 68 105 106 
f 105 76 106 
f 66 95 107 
f 85 71 108 
f 82 85 108 
f 71 86 108 
f 86 82 108 
f 92 78 109 
f 79 92 109 
f 95 79 109 
f 78 107 109 
f 107 95 109 
f 69 77 110 
f 89 69 110 
f 98 89 110 
f 87 75 111 
f 96 87 111 
f 68 82 112 
f 82 86 112 
f 78 70 113 
f 93 66 113 
f 70 93 113 
f 107 78 113 
f 66 107 113 
f 74 80 114 
f 83 74 114 
f 90 83 114 
f 84 65 115 
f 77 84 115 
f 65 98 115 
f 110 77 115 
f 98 110 115 
f 74 65 116 
f 65 84 116 
f 103 74 116 
f 84 103 116 
f 91 67 117 
f 75 91 117 
f 111 75 117 
f 67 111 117 
f 97 83 118 
f 105 68 118 
f 83 105 118 
f 68 112 118 
f 112 97 118 
f 71 78 119 
f 78 92 119 
f 92 79 119 
f 79 99 119 
f 99 71 119 
f 67 66 120 
f 66 93 120 
f 93 96 120 
f 111 67 120 
f 96 111 120 
f 86 71 121 
f 99 73 121 
f 71 99 121 
f 72 70 122 
f 81 72 122 
f 70 89 122 
f 89 81 122 
f 65 91 123 
f 102 81 123 
f 91 102 123 
f 80 94 124 
f 94 90 124 
f 114 80 124 
f 90 114 124 
f 73 97 125 
f 112 86 125 
f 97 112 125 
f 121 73 125 
f 86 121 125 
f 66 67 126 
f 95 66 126 
f 67 100 126 
f 100 95 126 
f 88 80 127 
f 80 103 127 
f 104 88 127 
f 103 104 127 
f 81 89 128 
f 98 65 128 
f 89 98 128 
f 65 123 128 
o convex_2
v -0.039576 0.049051 -0.066652
v 0.010454 0.076841 -0.069429
v 0.010454 0.049051 -0.069429
v -0.039576 0.076841 -0.055537
v -0.020122 0.076841 -0.074988
v 0.002110 0.049051 -0.077769
v -0.039576 0.049051 -0.055537
v -0.050697 0.076841 -0.058316
v 0.010454 0.076841 -0.074988
v -0.050697 0.049051 -0.055537
v -0.020122 0.049051 -0.074988
v -0.000668 0.076841 -0.077769
v -0.028460 0.076841 -0.072208
v 0.010454 0.049051 -0.074988
v -0.050697 0.076841 -0.055537
v -0.050697 0.049051 -0.058316
v -0.039576 0.076841 -0.066652
v -0.028460 0.049051 -0.072208
v -0.047914 0.076841 -0.061095
f 136 145 147 
f 131 130 132 
f 132 130 133 
f 131 129 134 
f 129 131 135 
f 131 132 135 
f 132 133 136 
f 130 131 137 
f 133 130 137 
f 129 135 138 
f 135 132 138 
f 134 129 139 
f 134 139 140 
f 133 137 140 
f 137 134 140 
f 139 133 140 
f 136 133 141 
f 133 139 141 
f 131 134 142 
f 137 131 142 
f 134 137 142 
f 132 136 143 
f 138 132 143 
f 136 138 143 
f 129 138 144 
f 138 136 144 
f 141 129 145 
f 136 141 145 
f 139 129 146 
f 129 141 146 
f 141 139 146 
f 129 144 147 
f 144 136 147 
f 145 129 147 
o convex_3
v 0.077164 0.062946 -0.019393
v 0.054927 0.046274 -0.052755
v 0.054927 0.076847 -0.052755
v 0.068821 0.046274 0.019515
v 0.068821 0.076847 0.019515
v 0.074382 0.046274 -0.027734
v 0.077164 0.076847 0.019515
v 0.066046 0.076847 -0.044415
v 0.077164 0.046274 0.016734
v 0.054927 0.046274 -0.041634
v 0.077164 0.076847 -0.019393
v 0.054927 0.076847 -0.044415
v 0.063271 0.046274 -0.047195
v 0.077164 0.046274 -0.016620
v 0.057711 0.076847 -0.052755
v 0.074382 0.076847 -0.027734
v 0.066046 0.051834 -0.044415
v 0.057711 0.046274 -0.052755
v 0.074382 0.046274 0.019515
v 0.054927 0.054614 -0.041634
f 159 157 167 
f 151 149 153 
f 152 151 154 
f 150 152 154 
f 150 154 155 
f 151 153 156 
f 148 154 156 
f 150 149 157 
f 149 151 157 
f 151 152 157 
f 148 153 158 
f 154 148 158 
f 155 154 158 
f 152 150 159 
f 150 157 159 
f 153 149 160 
f 153 148 161 
f 148 156 161 
f 156 153 161 
f 149 150 162 
f 150 155 162 
f 155 160 162 
f 153 155 163 
f 158 153 163 
f 155 158 163 
f 155 153 164 
f 153 160 164 
f 160 155 164 
f 160 149 165 
f 149 162 165 
f 162 160 165 
f 154 151 166 
f 151 156 166 
f 156 154 166 
f 157 152 167 
f 152 159 167 
o convex_4
v 0.013240 0.046274 0.075107
v 0.054927 0.076847 0.055654
v 0.054927 0.076847 0.052870
v 0.010454 0.076847 0.075107
v 0.046582 0.046274 0.052870
v 0.046582 0.046274 0.063988
v 0.010454 0.076847 0.069547
v 0.029918 0.076847 0.072325
v 0.010454 0.049054 0.069547
v 0.046582 0.076847 0.052870
v 0.054927 0.046274 0.055654
v 0.021572 0.046274 0.075107
v 0.046582 0.076847 0.063988
v 0.016017 0.046274 0.066763
v 0.021572 0.076847 0.075107
v 0.054927 0.046274 0.052870
v 0.029918 0.046274 0.072325
v 0.010454 0.049054 0.075107
f 171 176 185 
f 169 170 171 
f 168 172 173 
f 171 170 174 
f 169 171 175 
f 171 174 176 
f 170 172 177 
f 174 170 177 
f 170 169 178 
f 169 173 178 
f 173 172 178 
f 171 168 179 
f 168 173 179 
f 173 169 180 
f 169 175 180 
f 175 173 180 
f 172 168 181 
f 168 176 181 
f 176 174 181 
f 177 172 181 
f 174 177 181 
f 175 171 182 
f 171 179 182 
f 179 175 182 
f 172 170 183 
f 170 178 183 
f 178 172 183 
f 173 175 184 
f 179 173 184 
f 175 179 184 
f 168 171 185 
f 176 168 185 
o convex_5
v -0.042363 0.076841 -0.055532
v -0.067375 0.049051 -0.036081
v -0.067375 0.049051 -0.030521
v -0.042363 0.049051 -0.052751
v -0.061812 0.076841 -0.030521
v -0.053480 0.076841 -0.055532
v -0.053480 0.049051 -0.055532
v -0.067375 0.076841 -0.036081
v -0.061812 0.049051 -0.030521
v -0.059033 0.076841 -0.049972
v -0.042363 0.076841 -0.052751
v -0.067375 0.076841 -0.030521
v -0.042363 0.049051 -0.055532
v -0.056254 0.076841 -0.036081
v -0.064591 0.049051 -0.041638
v -0.059033 0.049051 -0.049972
v -0.056254 0.057392 -0.036081
f 199 194 202 
f 188 187 189 
f 190 186 191 
f 189 187 192 
f 191 186 192 
f 187 188 193 
f 190 191 193 
f 188 189 194 
f 190 188 194 
f 191 192 195 
f 193 191 195 
f 189 186 196 
f 186 190 196 
f 188 190 197 
f 193 188 197 
f 190 193 197 
f 186 189 198 
f 189 192 198 
f 192 186 198 
f 190 194 199 
f 189 196 199 
f 196 190 199 
f 192 187 200 
f 187 193 200 
f 193 195 200 
f 200 195 201 
f 195 192 201 
f 192 200 201 
f 194 189 202 
f 189 199 202 
o convex_6
v 0.043809 0.076847 -0.030520
v -0.000666 0.068508 -0.052755
v -0.014558 0.068508 -0.049969
v -0.000666 0.076847 -0.052755
v -0.039574 0.076847 -0.030518
v 0.041026 0.068508 -0.030520
v -0.039574 0.068508 -0.030518
v 0.035459 0.068508 -0.041634
v 0.018792 0.076847 -0.049971
v -0.022891 0.076847 -0.047196
v -0.028449 0.068508 -0.044410
v 0.018792 0.068508 -0.049971
v 0.035459 0.076847 -0.041634
v -0.039574 0.076847 -0.033302
v 0.043809 0.074067 -0.033302
f 210 215 217 
f 204 205 206 
f 203 206 207 
f 205 204 208 
f 208 203 209 
f 203 207 209 
f 205 208 209 
f 208 204 210 
f 204 206 211 
f 206 203 211 
f 206 205 212 
f 207 206 212 
f 205 209 213 
f 212 205 213 
f 210 204 214 
f 204 211 214 
f 211 210 214 
f 211 203 215 
f 210 211 215 
f 209 207 216 
f 207 212 216 
f 213 209 216 
f 212 213 216 
f 203 208 217 
f 208 210 217 
f 215 203 217 
o convex_7
v -0.075712 0.071283 0.008392
v -0.070153 0.049051 -0.030518
v -0.070153 0.076841 -0.030518
v -0.061816 0.076841 -0.024959
v -0.067377 0.049051 0.013955
v -0.067377 0.076841 0.013955
v -0.061816 0.049051 -0.030518
v -0.075712 0.049051 -0.011054
v -0.075712 0.049051 0.011174
v -0.075712 0.076841 -0.005508
v -0.072932 0.076841 0.013955
v -0.061816 0.076841 -0.030518
v -0.072932 0.057392 -0.024959
v -0.072932 0.076841 -0.022177
v -0.061816 0.049051 -0.027736
v -0.072932 0.049051 0.013955
f 228 226 233 
f 221 220 223 
f 222 221 223 
f 219 220 224 
f 222 219 224 
f 219 222 225 
f 225 222 226 
f 218 225 226 
f 223 220 227 
f 225 218 227 
f 222 223 228 
f 218 226 228 
f 227 218 228 
f 223 227 228 
f 220 221 229 
f 224 220 229 
f 221 224 229 
f 220 219 230 
f 219 225 230 
f 227 220 231 
f 225 227 231 
f 220 230 231 
f 230 225 231 
f 221 222 232 
f 224 221 232 
f 222 224 232 
f 226 222 233 
f 222 228 233 
o convex_8
v -0.056259 0.076841 0.052870
v -0.072932 0.049051 0.013955
v -0.072932 0.076841 0.013955
v -0.053477 0.049051 0.041751
v -0.064593 0.076841 0.016736
v -0.064593 0.049051 0.041751
v -0.070152 0.076841 0.030639
v -0.053477 0.076841 0.041751
v -0.067373 0.049051 0.013955
v -0.053477 0.049051 0.052870
v -0.072932 0.049051 0.025074
v -0.053477 0.076841 0.052870
v -0.056259 0.049051 0.052870
v -0.064593 0.076841 0.041751
v -0.072932 0.076841 0.022297
v -0.067373 0.076841 0.013955
v -0.059038 0.076841 0.050085
f 247 239 250 
f 236 234 238 
f 235 237 239 
f 234 236 240 
f 238 234 241 
f 237 238 241 
f 235 236 242 
f 237 235 242 
f 238 237 242 
f 239 237 243 
f 237 241 243 
f 236 235 244 
f 235 239 244 
f 239 240 244 
f 241 234 245 
f 234 243 245 
f 243 241 245 
f 243 234 246 
f 239 243 246 
f 234 240 247 
f 240 239 247 
f 240 236 248 
f 236 244 248 
f 244 240 248 
f 236 238 249 
f 242 236 249 
f 238 242 249 
f 246 234 250 
f 239 246 250 
f 234 247 250 
o convex_9
v 0.038245 0.076847 0.038971
v 0.032684 0.068508 0.019515
v 0.010454 0.068508 0.036188
v 0.010454 0.076847 0.036188
v 0.018796 0.068508 0.050090
v 0.049368 0.076847 0.019515
v 0.049368 0.068508 0.022295
v 0.010454 0.076847 0.050090
v 0.032684 0.076847 0.019515
v 0.038245 0.068508 0.038971
v 0.010454 0.068508 0.050090
v 0.018796 0.076847 0.050090
v 0.046587 0.076847 0.027856
v 0.049368 0.068508 0.019515
v 0.035465 0.071288 0.041749
f 262 255 265 
f 252 253 254 
f 253 252 255 
f 254 251 256 
f 255 252 257 
f 254 253 258 
f 251 254 258 
f 252 254 259 
f 256 252 259 
f 254 256 259 
f 255 257 260 
f 253 255 261 
f 258 253 261 
f 255 258 261 
f 251 258 262 
f 258 255 262 
f 256 251 263 
f 257 256 263 
f 251 260 263 
f 260 257 263 
f 252 256 264 
f 257 252 264 
f 256 257 264 
f 260 251 265 
f 255 260 265 
f 251 262 265 
o convex_10
v -0.050697 0.076847 0.008390
v -0.022907 0.076847 -0.027738
v -0.022907 0.068508 -0.027738
v -0.028465 0.076847 0.025074
v -0.039576 0.068508 0.025074
v -0.039576 0.068508 -0.030518
v -0.042356 0.076847 -0.030518
v -0.050697 0.071288 -0.008278
v -0.028465 0.068508 0.025074
v -0.045134 0.076847 0.025074
v -0.047914 0.071288 0.019507
v -0.022907 0.076847 -0.030518
v -0.050697 0.076847 -0.008278
v -0.047914 0.071288 -0.019395
v -0.050697 0.071288 0.008390
v -0.022907 0.068508 -0.030518
f 271 277 281 
f 268 267 269 
f 267 266 269 
f 268 270 271 
f 266 267 272 
f 271 270 273 
f 268 269 274 
f 269 270 274 
f 270 268 274 
f 269 266 275 
f 270 269 275 
f 270 275 276 
f 275 266 276 
f 267 268 277 
f 271 272 277 
f 272 267 277 
f 266 272 278 
f 273 266 278 
f 273 278 279 
f 272 271 279 
f 271 273 279 
f 278 272 279 
f 266 273 280 
f 273 270 280 
f 270 276 280 
f 276 266 280 
f 268 271 281 
f 277 268 281 
o convex_11
v 0.007673 0.076845 0.019515
v -0.006219 0.057389 -0.019400
v -0.006219 0.068505 -0.019400
v 0.021572 0.065733 -0.005496
v -0.011781 0.057389 0.016734
v -0.017342 0.076845 -0.008281
v 0.018791 0.057389 0.011173
v 0.013230 0.076845 -0.016619
v 0.021572 0.076845 0.005611
v 0.013230 0.057389 -0.016619
v -0.017342 0.076845 0.008396
v -0.017342 0.057389 -0.008281
v 0.007673 0.057389 0.019515
v -0.003443 0.076845 0.019515
v 0.007673 0.076845 -0.019400
v -0.017342 0.057389 0.008396
v 0.018791 0.057389 -0.011058
v 0.021572 0.076845 -0.005496
v 0.013230 0.076845 0.016734
v -0.003443 0.076845 -0.019400
v -0.011781 0.065733 -0.016619
v 0.007673 0.057389 -0.019400
v -0.003443 0.057389 0.019515
v -0.011781 0.065733 0.016734
v -0.014562 0.057389 -0.013838
v 0.021572 0.065733 0.005611
v 0.018791 0.076845 0.011173
v 0.018791 0.076845 -0.011058
v 0.013230 0.057389 0.016734
f 300 294 310 
f 286 283 288 
f 287 282 289 
f 289 282 290 
f 288 283 291 
f 282 287 292 
f 292 287 293 
f 283 286 293 
f 286 288 294 
f 282 292 295 
f 294 282 295 
f 283 284 296 
f 287 289 296 
f 289 291 296 
f 286 292 297 
f 292 293 297 
f 293 286 297 
f 285 288 298 
f 288 291 298 
f 291 289 298 
f 290 285 299 
f 289 290 299 
f 285 298 299 
f 290 282 300 
f 282 294 300 
f 296 284 301 
f 287 296 301 
f 284 283 302 
f 301 284 302 
f 287 301 302 
f 291 283 303 
f 283 296 303 
f 296 291 303 
f 286 294 304 
f 295 286 304 
f 294 295 304 
f 292 286 305 
f 295 292 305 
f 286 295 305 
f 293 287 306 
f 283 293 306 
f 302 283 306 
f 287 302 306 
f 288 285 307 
f 285 290 307 
f 290 288 307 
f 288 290 308 
f 300 288 308 
f 290 300 308 
f 298 289 309 
f 289 299 309 
f 299 298 309 
f 294 288 310 
f 288 300 310 
o convex_12
v -0.047918 0.049051 0.061209
v 0.010448 0.076841 0.075107
v 0.010448 0.076841 0.069546
v 0.010448 0.049051 0.075107
v -0.028457 0.076841 0.072326
v -0.034011 0.076841 0.058429
v -0.034011 0.049051 0.058429
v -0.020120 0.049051 0.075107
v 0.010448 0.049051 0.069546
v -0.047918 0.074064 0.058429
v -0.017344 0.076841 0.075107
v -0.039570 0.076841 0.066768
v -0.028457 0.049051 0.072326
v -0.047918 0.049051 0.058429
v -0.047918 0.074064 0.061209
v -0.039570 0.049051 0.066768
v -0.045135 0.076841 0.058429
f 325 322 327 
f 313 312 314 
f 312 313 315 
f 315 313 316 
f 314 311 317 
f 316 313 317 
f 314 312 318 
f 311 314 318 
f 313 314 319 
f 317 313 319 
f 314 317 319 
f 316 317 320 
f 312 315 321 
f 318 312 321 
f 315 318 321 
f 315 316 322 
f 311 318 323 
f 318 315 323 
f 315 322 323 
f 317 311 324 
f 311 320 324 
f 320 317 324 
f 320 311 325 
f 311 322 325 
f 322 311 326 
f 311 323 326 
f 323 322 326 
f 316 320 327 
f 322 316 327 
f 320 325 327 
o convex_13
v 0.029918 0.076847 -0.072210
v 0.054927 0.076847 -0.052757
v 0.054927 0.046274 -0.052757
v 0.010454 0.076847 -0.069431
v 0.013240 0.046274 -0.074990
v 0.046582 0.046274 -0.063874
v 0.046582 0.046274 -0.052757
v 0.010454 0.049054 -0.069431
v 0.046582 0.076847 -0.052757
v 0.010454 0.076847 -0.074990
v 0.021572 0.046274 -0.074990
v 0.046582 0.076847 -0.063874
v 0.038250 0.068503 -0.069431
v 0.054927 0.046274 -0.055539
v 0.021572 0.076847 -0.074990
v 0.054927 0.076847 -0.055539
v 0.029918 0.046274 -0.072210
v 0.013240 0.046274 -0.069431
v 0.010454 0.049054 -0.074990
f 335 337 346 
f 329 328 331 
f 330 332 333 
f 330 329 334 
f 332 330 334 
f 334 331 335 
f 329 331 336 
f 334 329 336 
f 331 334 336 
f 331 328 337 
f 335 331 337 
f 333 332 338 
f 332 337 338 
f 328 329 339 
f 339 333 340 
f 328 339 340 
f 329 330 341 
f 330 333 341 
f 333 339 341 
f 337 328 342 
f 328 338 342 
f 338 337 342 
f 339 329 343 
f 329 341 343 
f 341 339 343 
f 333 338 344 
f 338 328 344 
f 340 333 344 
f 328 340 344 
f 332 334 345 
f 335 332 345 
f 334 335 345 
f 332 335 346 
f 337 332 346 
o convex_14
v 0.054927 0.076847 -0.047196
v 0.049368 0.046274 -0.052754
v 0.049368 0.046274 -0.049976
v 0.049368 0.076847 -0.052754
v 0.054927 0.046274 -0.052754
v 0.054927 0.046274 -0.047196
v 0.054927 0.076847 -0.052754
v 0.052148 0.076847 -0.047196
f 349 352 354 
f 348 349 350 
f 349 348 351 
f 348 350 351 
f 351 347 352 
f 349 351 352 
f 350 347 353 
f 347 351 353 
f 351 350 353 
f 350 349 354 
f 347 350 354 
f 352 347 354 
o convex_15
v 0.027131 0.068508 -0.030513
v 0.052148 0.076847 0.016728
v 0.052148 0.068508 0.016728
v 0.035472 0.068508 0.019510
v 0.027131 0.076847 -0.027732
v 0.046584 0.076847 -0.027732
v 0.052148 0.068508 -0.016617
v 0.035472 0.076847 0.019510
v 0.043807 0.068508 -0.030513
v 0.052148 0.076847 -0.016617
v 0.043807 0.076847 -0.030513
v 0.049366 0.076847 0.019510
v 0.027131 0.076847 -0.030513
v 0.049366 0.068508 0.019510
f 366 358 368 
f 355 357 358 
f 355 358 359 
f 359 356 360 
f 357 355 361 
f 356 357 361 
f 359 358 362 
f 356 359 362 
f 361 355 363 
f 360 361 363 
f 360 356 364 
f 356 361 364 
f 361 360 364 
f 359 360 365 
f 363 355 365 
f 360 363 365 
f 357 356 366 
f 356 362 366 
f 362 358 366 
f 355 359 367 
f 365 355 367 
f 359 365 367 
f 358 357 368 
f 357 366 368 
o convex_16
v -0.039579 0.076841 0.058429
v -0.053477 0.049051 0.044531
v -0.053477 0.049051 0.055647
v -0.039579 0.049051 0.058429
v -0.050696 0.076841 0.044531
v -0.053477 0.076841 0.055647
v -0.039579 0.049051 0.055647
v -0.050696 0.049051 0.058429
v -0.050696 0.076841 0.058429
v -0.039579 0.076841 0.055647
v -0.050696 0.049051 0.044531
v -0.053477 0.076841 0.044531
f 374 373 380 
f 371 370 372 
f 370 371 374 
f 369 373 374 
f 372 370 375 
f 369 372 375 
f 371 372 376 
f 372 369 376 
f 374 371 376 
f 374 376 377 
f 369 374 377 
f 376 369 377 
f 373 369 378 
f 369 375 378 
f 375 373 378 
f 370 373 379 
f 375 370 379 
f 373 375 379 
f 373 370 380 
f 370 374 380 
o convex_17
v 0.057709 0.076847 0.052870
v 0.068823 0.046274 0.019515
v 0.074385 0.046274 0.019515
v 0.074385 0.076847 0.019515
v 0.049368 0.076847 0.050088
v 0.049368 0.046274 0.052870
v 0.068823 0.046274 0.038967
v 0.074385 0.076847 0.027857
v 0.068823 0.076847 0.019515
v 0.057709 0.046274 0.052870
v 0.066042 0.076847 0.044528
v 0.066042 0.046274 0.022296
v 0.074385 0.046274 0.027857
v 0.049368 0.046274 0.050088
v 0.049368 0.076847 0.052870
v 0.066042 0.054614 0.044528
v 0.066042 0.060172 0.022296
f 389 392 397 
f 383 382 384 
f 381 384 385 
f 382 383 386 
f 386 383 387 
f 383 384 388 
f 384 381 388 
f 384 382 389 
f 385 384 389 
f 381 386 390 
f 386 387 390 
f 388 381 391 
f 381 390 391 
f 382 386 392 
f 389 382 392 
f 387 383 393 
f 383 388 393 
f 388 391 393 
f 386 385 394 
f 392 386 394 
f 385 392 394 
f 381 385 395 
f 385 386 395 
f 386 381 395 
f 390 387 396 
f 391 390 396 
f 387 393 396 
f 393 391 396 
f 385 389 397 
f 392 385 397 
o convex_18
v -0.022900 0.076847 0.047308
v -0.042358 0.071288 0.025074
v -0.042358 0.076847 0.025074
v 0.010454 0.076847 0.036198
v 0.010454 0.068508 0.050090
v 0.010454 0.068508 0.036198
v -0.031233 0.068508 0.041750
v -0.025676 0.068508 0.025074
v 0.010454 0.076847 0.050090
v -0.014556 0.068508 0.050090
v -0.025676 0.076847 0.025074
v -0.039577 0.076847 0.033414
v -0.039577 0.068508 0.033414
v -0.014556 0.076847 0.050090
v -0.039577 0.068508 0.025074
f 410 399 412 
f 400 398 401 
f 401 402 403 
f 403 402 404 
f 403 404 405 
f 399 400 405 
f 401 403 405 
f 401 398 406 
f 402 401 406 
f 402 406 407 
f 398 404 407 
f 404 402 407 
f 400 401 408 
f 405 400 408 
f 401 405 408 
f 398 400 409 
f 400 399 409 
f 404 398 409 
f 404 409 410 
f 405 404 410 
f 409 399 410 
f 406 398 411 
f 407 406 411 
f 398 407 411 
f 399 405 412 
f 405 410 412 
