o convex_0
v -0.136201 0.010440 0.048638
v -0.228265 -0.007375 -0.012242
v -0.228265 0.007473 -0.012242
v -0.231243 -0.005889 0.054585
v -0.145113 -0.016284 0.020432
v -0.216385 0.020840 0.054585
v -0.203026 0.017868 -0.012242
v -0.204505 -0.020741 0.054585
v -0.203026 -0.017770 -0.012242
v -0.145113 0.016383 0.020432
v -0.145113 -0.016284 0.054585
v -0.145113 0.016383 0.054585
v -0.216385 -0.020741 0.020439
v -0.192625 0.005988 -0.012242
v -0.229754 0.010444 0.054585
v -0.216385 0.020840 0.020439
v -0.136201 -0.010342 0.026365
v -0.220841 -0.019256 0.054585
v -0.220841 0.016383 -0.012242
v -0.220841 -0.016284 -0.012242
v -0.204505 0.020840 0.020439
v -0.157003 -0.017770 0.020432
v -0.194113 -0.010346 -0.012242
v -0.136201 0.010440 0.026365
v -0.229754 -0.010346 0.020439
v -0.136201 -0.010342 0.048638
v -0.231243 0.005988 0.020439
v -0.220841 0.019354 0.020439
v -0.204505 -0.020741 0.020439
v -0.229754 0.010444 0.020439
v -0.204505 0.020840 0.054585
v -0.161450 0.017868 0.020432
v -0.220841 -0.019256 0.020439
v -0.157003 -0.017770 0.054585
v -0.231243 -0.005889 0.020439
v -0.194113 0.010444 -0.012242
v -0.220841 0.019354 0.054585
v -0.229754 -0.010346 0.054585
v -0.217874 -0.017770 -0.012242
v -0.217874 0.017868 -0.012242
v -0.192625 -0.005889 -0.012242
v -0.231243 0.005988 0.054585
v -0.216385 -0.020741 0.054585
v -0.161450 0.017868 0.054585
v -0.200049 -0.016284 -0.012242
v -0.200049 0.016383 -0.012242
v -0.226777 -0.010346 -0.012242
v -0.226777 0.010444 -0.012242
f 30 19 48 
f 2 3 7 
f 6 4 8 
f 2 7 9 
f 6 8 11 
f 1 10 12 
f 11 1 12 
f 6 11 12 
f 9 7 14 
f 4 6 15 
f 11 5 17 
f 8 4 18 
f 7 3 19 
f 2 9 20 
f 16 6 21 
f 7 16 21 
f 9 5 22 
f 5 11 22 
f 9 14 23 
f 10 1 24 
f 14 10 24 
f 1 17 24 
f 17 14 24 
f 1 11 26 
f 17 1 26 
f 11 17 26 
f 3 2 27 
f 6 16 28 
f 8 13 29 
f 13 9 29 
f 9 22 29 
f 22 8 29 
f 3 27 30 
f 27 15 30 
f 15 28 30 
f 28 19 30 
f 6 12 31 
f 21 6 31 
f 21 31 32 
f 10 7 32 
f 12 10 32 
f 7 21 32 
f 13 18 33 
f 18 25 33 
f 25 20 33 
f 11 8 34 
f 22 11 34 
f 8 22 34 
f 2 25 35 
f 25 4 35 
f 27 2 35 
f 4 27 35 
f 14 7 36 
f 10 14 36 
f 15 6 37 
f 28 15 37 
f 6 28 37 
f 18 4 38 
f 4 25 38 
f 25 18 38 
f 9 13 39 
f 20 9 39 
f 13 33 39 
f 33 20 39 
f 16 7 40 
f 7 19 40 
f 28 16 40 
f 19 28 40 
f 17 5 41 
f 14 17 41 
f 5 23 41 
f 23 14 41 
f 4 15 42 
f 15 27 42 
f 27 4 42 
f 13 8 43 
f 8 18 43 
f 18 13 43 
f 31 12 44 
f 32 31 44 
f 12 32 44 
f 5 9 45 
f 23 5 45 
f 9 23 45 
f 7 10 46 
f 36 7 46 
f 10 36 46 
f 2 20 47 
f 25 2 47 
f 20 25 47 
f 19 3 48 
f 3 30 48 
o convex_1
v -0.057494 0.010444 0.048644
v -0.136201 -0.010346 0.026369
v -0.136201 0.010444 0.026369
v -0.136201 -0.010346 0.048644
v -0.057494 -0.010346 0.026369
v -0.136201 0.010444 0.048644
v -0.057494 0.010444 0.026369
v -0.057494 -0.010346 0.048644
f 52 53 56 
f 51 50 52 
f 50 51 53 
f 52 50 53 
f 49 51 54 
f 51 52 54 
f 52 49 54 
f 51 49 55 
f 49 53 55 
f 53 51 55 
f 49 52 56 
f 53 49 56 
o convex_2
v 0.018235 0.005983 -0.000362
v -0.018884 -0.001434 -0.000362
v -0.018884 0.001528 -0.000362
v -0.056004 0.016380 0.051614
v 0.006359 -0.017771 0.050129
v -0.056004 -0.017771 0.023408
v 0.012297 0.014894 0.050129
v 0.006359 -0.017771 -0.000362
v -0.056004 0.017870 0.023408
v -0.056004 -0.016281 0.051614
v 0.006359 0.017870 -0.000362
v 0.016752 -0.004406 0.051614
v 0.006359 0.017870 0.050129
v 0.015270 -0.011830 -0.000362
v -0.009973 0.016380 -0.000362
v -0.009973 -0.016281 -0.000362
v 0.018235 -0.005889 0.048643
v 0.018235 0.005983 0.048643
v -0.057487 -0.010344 0.026359
v -0.056004 -0.017771 0.050129
v -0.056004 0.017870 0.050129
v 0.012297 -0.014799 0.050129
v 0.015270 0.011925 -0.000362
v 0.006359 0.016380 0.051614
v -0.057487 0.010439 0.048643
v 0.018235 -0.005889 -0.000362
v 0.006359 -0.016281 0.051614
v -0.015919 -0.010344 -0.000362
v -0.015919 0.010439 -0.000362
v -0.057487 -0.010344 0.048643
v -0.057487 0.010439 0.026359
v 0.015270 0.011925 0.050129
v 0.015270 -0.011830 0.050129
v -0.007008 -0.017771 -0.000362
v -0.007008 0.017870 -0.000362
v 0.012297 -0.014799 -0.000362
v 0.012297 0.014894 -0.000362
v 0.015270 0.008956 0.051614
v -0.017402 -0.007375 -0.000362
v -0.017402 0.007470 -0.000362
v 0.018235 0.004501 0.050129
f 88 94 97 
f 57 58 59 
f 59 58 62 
f 58 57 64 
f 61 62 64 
f 59 62 65 
f 57 59 67 
f 60 66 68 
f 63 67 69 
f 67 65 69 
f 64 57 70 
f 67 59 71 
f 58 64 72 
f 73 57 74 
f 65 62 75 
f 62 61 76 
f 61 66 76 
f 75 62 76 
f 60 69 77 
f 69 65 77 
f 61 64 78 
f 57 67 79 
f 74 57 79 
f 60 68 80 
f 69 60 80 
f 63 69 80 
f 66 60 81 
f 60 77 81 
f 77 65 81 
f 70 57 82 
f 57 73 82 
f 73 70 82 
f 66 61 83 
f 68 66 83 
f 61 78 83 
f 58 72 84 
f 72 62 84 
f 71 59 85 
f 65 71 85 
f 76 66 86 
f 75 76 86 
f 66 81 86 
f 81 75 86 
f 65 75 87 
f 81 65 87 
f 75 81 87 
f 79 63 88 
f 74 79 88 
f 73 68 89 
f 70 73 89 
f 78 70 89 
f 68 83 89 
f 83 78 89 
f 64 62 90 
f 62 72 90 
f 72 64 90 
f 65 67 91 
f 71 65 91 
f 67 71 91 
f 64 70 92 
f 78 64 92 
f 70 78 92 
f 67 63 93 
f 79 67 93 
f 63 79 93 
f 63 80 94 
f 80 68 94 
f 88 63 94 
f 62 58 95 
f 58 84 95 
f 84 62 95 
f 59 65 96 
f 85 59 96 
f 65 85 96 
f 68 73 97 
f 73 74 97 
f 74 88 97 
f 94 68 97 
