o convex_0
v -0.056984 0.003799 0.037119
v -0.005563 -0.010041 -0.041989
v -0.005563 -0.015969 -0.040008
v 0.024103 0.021599 0.043063
v 0.026080 -0.039706 0.017338
v 0.033997 0.039400 -0.018253
v -0.056984 0.035440 -0.012317
v -0.056984 -0.035754 -0.012317
v 0.000369 -0.029818 0.043063
v 0.026080 -0.035754 -0.024181
v -0.056984 0.011703 -0.036053
v 0.000369 0.031479 0.041073
v 0.026080 0.009727 -0.041989
v -0.056984 -0.029810 0.023274
v -0.056984 0.035440 0.013391
v 0.033997 0.041384 0.009429
v -0.005563 0.029512 -0.032098
v -0.056984 -0.019929 -0.032090
v 0.024103 -0.021905 0.043063
v -0.005563 -0.041690 0.009429
v -0.005563 0.041384 0.011402
v 0.026080 -0.015969 -0.040008
v 0.026080 -0.041690 -0.010336
v -0.013471 0.021599 0.043063
v -0.056984 0.021599 0.031183
v -0.005563 -0.035754 -0.024181
v -0.005563 0.041384 -0.010336
v -0.056984 -0.035754 0.011410
v 0.028057 -0.035754 0.013383
v -0.056984 -0.017953 0.033172
v 0.028057 -0.008057 0.037127
v 0.033997 0.025551 -0.016272
v -0.056984 0.027527 -0.026162
v -0.005563 0.009727 -0.041989
v -0.005563 -0.041690 -0.010336
v 0.026080 0.023567 -0.036053
v -0.013471 -0.021905 0.043063
v -0.005563 -0.023881 -0.036053
v -0.056984 0.037424 -0.000445
v 0.028057 -0.033778 -0.018253
v -0.056984 -0.010033 -0.036053
v 0.000369 -0.031794 0.041073
v -0.005563 0.035440 -0.024181
v 0.012231 0.031479 0.041073
v 0.033997 0.029512 0.009429
v -0.053021 -0.027834 -0.026162
v 0.012231 -0.031794 0.041073
v -0.056984 0.031488 0.021300
v 0.028057 -0.012017 -0.036053
v -0.005563 0.015655 -0.040008
v 0.028057 -0.021905 0.031183
v 0.033997 0.041384 -0.012317
v 0.026080 -0.023881 -0.036053
v -0.005563 -0.039706 0.017338
v 0.026080 0.029512 -0.032098
v -0.056984 -0.004105 0.037119
v 0.026080 -0.041690 0.009429
v 0.026080 -0.010041 -0.041989
v -0.056984 0.019623 -0.032090
v 0.028057 0.007743 0.037127
v 0.000369 0.029512 0.043063
v -0.056984 0.013687 0.035146
v -0.005563 -0.039706 -0.016272
v 0.033997 0.037424 -0.020226
f 49 58 64 
f 1 7 8 
f 8 7 11 
f 1 8 14 
f 7 1 15 
f 8 11 18 
f 4 9 19 
f 15 12 21 
f 3 2 22 
f 9 4 24 
f 15 1 25 
f 21 16 27 
f 14 8 28 
f 8 20 28 
f 1 14 30 
f 14 9 30 
f 4 19 31 
f 6 16 32 
f 11 7 33 
f 2 11 34 
f 13 2 34 
f 20 8 35 
f 23 20 35 
f 24 1 37 
f 9 24 37 
f 30 9 37 
f 18 3 38 
f 3 22 38 
f 10 26 38 
f 7 15 39 
f 15 21 39 
f 27 7 39 
f 21 27 39 
f 23 10 40 
f 29 23 40 
f 32 29 40 
f 2 3 41 
f 11 2 41 
f 3 18 41 
f 18 11 41 
f 9 14 42 
f 14 28 42 
f 27 6 43 
f 7 27 43 
f 33 7 43 
f 17 33 43 
f 4 16 44 
f 21 12 44 
f 16 21 44 
f 16 31 45 
f 32 16 45 
f 29 32 45 
f 8 18 46 
f 26 8 46 
f 18 38 46 
f 38 26 46 
f 19 9 47 
f 5 19 47 
f 9 42 47 
f 42 5 47 
f 12 15 48 
f 15 25 48 
f 32 40 49 
f 34 11 50 
f 13 34 50 
f 36 13 50 
f 17 36 50 
f 19 5 51 
f 5 29 51 
f 31 19 51 
f 45 31 51 
f 29 45 51 
f 16 6 52 
f 6 27 52 
f 27 16 52 
f 38 22 53 
f 10 38 53 
f 40 10 53 
f 22 49 53 
f 49 40 53 
f 20 5 54 
f 28 20 54 
f 5 42 54 
f 42 28 54 
f 36 17 55 
f 43 6 55 
f 17 43 55 
f 1 30 56 
f 37 1 56 
f 30 37 56 
f 5 20 57 
f 20 23 57 
f 29 5 57 
f 23 29 57 
f 2 13 58 
f 22 2 58 
f 49 22 58 
f 11 33 59 
f 33 17 59 
f 50 11 59 
f 17 50 59 
f 16 4 60 
f 4 31 60 
f 31 16 60 
f 24 4 61 
f 4 44 61 
f 44 12 61 
f 12 48 61 
f 48 25 61 
f 1 24 62 
f 25 1 62 
f 24 61 62 
f 61 25 62 
f 10 23 63 
f 26 10 63 
f 8 26 63 
f 35 8 63 
f 23 35 63 
f 6 32 64 
f 13 36 64 
f 32 49 64 
f 55 6 64 
f 36 55 64 
f 58 13 64 
o convex_1
v 0.012234 0.029516 0.049004
v 0.000375 -0.029822 0.043063
v 0.012234 -0.029822 0.043063
v -0.013470 -0.021905 0.147894
v 0.024100 -0.021905 0.147894
v -0.013470 0.021599 0.147894
v -0.013470 0.021599 0.043063
v 0.024107 0.021599 0.147894
v 0.024107 0.021599 0.043063
v -0.013470 -0.021905 0.043063
v 0.024100 -0.021905 0.043063
v 0.000375 0.029516 0.043063
v 0.012234 -0.029822 0.047024
v 0.000375 0.029516 0.049004
v 0.012234 0.029516 0.043063
v 0.000375 -0.029822 0.047024
f 77 68 80 
f 68 69 70 
f 67 66 71 
f 68 70 71 
f 65 70 72 
f 70 69 72 
f 67 71 73 
f 65 72 73 
f 72 69 73 
f 66 68 74 
f 71 66 74 
f 68 71 74 
f 69 67 75 
f 67 73 75 
f 73 69 75 
f 71 70 76 
f 73 71 76 
f 66 67 77 
f 69 68 77 
f 67 69 77 
f 70 65 78 
f 65 76 78 
f 76 70 78 
f 65 73 79 
f 76 65 79 
f 73 76 79 
f 68 66 80 
f 66 77 80 
o convex_2
v 0.026082 0.015666 0.211189
v -0.025342 -0.010034 0.189426
v -0.023359 -0.010034 0.151859
v 0.022129 -0.029822 0.201289
v 0.035970 0.007754 0.151859
v -0.003583 0.029513 0.151859
v -0.019400 0.021595 0.209200
v 0.014211 -0.029822 0.151859
v -0.009512 -0.029822 0.209200
v 0.008282 0.033472 0.201289
v 0.037953 -0.008057 0.209200
v 0.024106 -0.021904 0.147901
v 0.024106 0.025554 0.151859
v 0.032011 0.021601 0.201289
v -0.023359 0.009731 0.151859
v -0.013465 -0.021898 0.147901
v -0.013465 0.021595 0.147901
v 0.033994 -0.013993 0.151859
v -0.025342 -0.002122 0.209200
v 0.024106 0.021601 0.147901
v 0.014211 -0.023887 0.211189
v -0.003583 -0.029822 0.153836
v -0.003583 0.023578 0.211189
v 0.010258 0.031490 0.209200
v 0.016188 0.029513 0.151859
v -0.017424 -0.010034 0.211189
v -0.021383 0.019625 0.189426
v -0.019400 -0.017945 0.151859
v 0.024106 -0.025863 0.151859
v -0.009512 0.027537 0.209200
v 0.037953 -0.010040 0.189426
v -0.021383 -0.015969 0.209200
v 0.035970 0.007754 0.209200
v 0.020147 -0.029822 0.209200
v 0.032011 0.017642 0.153836
v 0.004329 0.033472 0.189426
v -0.011488 0.025554 0.151859
v -0.011488 -0.025857 0.151859
v 0.030035 0.021601 0.209200
v -0.021383 0.015666 0.153836
v 0.030035 -0.019928 0.151859
v 0.032011 -0.017952 0.209200
v 0.035970 -0.008057 0.151859
v 0.030035 -0.008057 0.211189
v 0.037953 -0.002128 0.189426
v 0.033994 -0.006081 0.149883
v -0.009512 -0.029822 0.189426
v -0.017424 0.009731 0.211189
v -0.021383 0.009731 0.149883
v -0.023359 0.009731 0.209200
v -0.025342 -0.010034 0.209200
v -0.025342 -0.000145 0.189426
v -0.001606 -0.027840 0.149883
v 0.022129 -0.029822 0.189426
v 0.032011 0.021601 0.189426
v -0.007536 -0.021898 0.211189
v -0.007536 0.023578 0.147901
v 0.002353 0.031490 0.209200
v 0.020147 0.027537 0.209200
v 0.020147 0.021601 0.211189
v -0.019400 0.021595 0.189426
v -0.011488 -0.027840 0.189426
v 0.032011 -0.017952 0.171640
v 0.016188 0.027537 0.149883
f 100 137 144 
f 88 84 89 
f 83 82 95 
f 92 96 97 
f 92 97 100 
f 88 89 102 
f 101 81 103 
f 90 93 105 
f 93 100 105 
f 101 103 106 
f 82 83 108 
f 83 96 108 
f 88 92 109 
f 87 103 110 
f 82 108 112 
f 85 94 113 
f 89 84 114 
f 101 89 114 
f 85 100 115 
f 100 93 115 
f 105 86 116 
f 90 105 116 
f 86 110 116 
f 86 97 117 
f 110 86 117 
f 108 96 118 
f 81 113 119 
f 113 94 119 
f 97 95 120 
f 95 107 120 
f 117 97 120 
f 107 117 120 
f 92 98 121 
f 109 92 121 
f 98 111 121 
f 111 91 122 
f 114 84 122 
f 85 111 123 
f 111 98 123 
f 81 101 124 
f 113 81 124 
f 91 113 124 
f 101 114 124 
f 122 91 124 
f 114 122 124 
f 111 85 125 
f 91 111 125 
f 113 91 125 
f 85 113 125 
f 98 92 126 
f 100 85 126 
f 92 100 126 
f 85 123 126 
f 123 98 126 
f 102 89 127 
f 118 102 127 
f 108 118 127 
f 103 87 128 
f 99 106 128 
f 106 103 128 
f 83 95 129 
f 96 83 129 
f 95 97 129 
f 97 96 129 
f 87 107 130 
f 128 87 130 
f 99 128 130 
f 99 82 131 
f 106 99 131 
f 82 112 131 
f 112 106 131 
f 95 82 132 
f 82 99 132 
f 107 95 132 
f 99 130 132 
f 130 107 132 
f 92 88 133 
f 96 92 133 
f 88 102 133 
f 102 118 133 
f 118 96 133 
f 84 88 134 
f 88 109 134 
f 109 121 134 
f 122 84 134 
f 93 90 135 
f 90 94 135 
f 94 85 135 
f 85 115 135 
f 115 93 135 
f 89 101 136 
f 101 106 136 
f 106 112 136 
f 112 89 136 
f 97 86 137 
f 100 97 137 
f 104 90 138 
f 103 104 138 
f 110 103 138 
f 90 116 138 
f 116 110 138 
f 94 90 139 
f 90 104 139 
f 119 94 139 
f 119 139 140 
f 103 81 140 
f 104 103 140 
f 81 119 140 
f 139 104 140 
f 107 87 141 
f 87 110 141 
f 117 107 141 
f 110 117 141 
f 89 112 142 
f 112 108 142 
f 127 89 142 
f 108 127 142 
f 121 111 143 
f 111 122 143 
f 134 121 143 
f 122 134 143 
f 86 105 144 
f 105 100 144 
f 137 86 144 
