o convex_0
v -0.009553 -0.015262 0.011865
v 0.002826 0.017754 0.011865
v 0.002826 0.017754 0.010833
v 0.016238 -0.008037 0.011865
v 0.004889 -0.015262 -0.000516
v -0.014711 0.006402 -0.000516
v 0.013144 0.009499 -0.000516
v -0.016774 0.006402 0.011865
v -0.012647 -0.010101 -0.000516
v -0.003362 0.015690 -0.000516
v 0.015208 0.009499 0.011865
v 0.015208 -0.004943 -0.000516
v 0.004889 -0.017325 0.011865
v -0.010583 0.014657 0.011865
v -0.016774 -0.007007 0.010833
v -0.005426 -0.015262 -0.000516
v 0.017271 0.005372 0.010833
v 0.009017 0.013627 -0.000516
v -0.015744 -0.002880 -0.000516
v 0.011080 -0.014228 0.010833
v 0.012110 0.013627 0.010833
v -0.011617 0.011563 0.000517
v 0.014174 -0.008037 -0.000516
v -0.017808 0.002271 0.011865
v -0.004392 -0.017325 0.010833
v 0.015208 0.005372 -0.000516
v -0.002329 0.017754 0.010833
v -0.013681 -0.012164 0.011865
v -0.014711 0.010529 0.010833
v 0.017271 -0.004943 0.010833
v 0.002826 0.015690 -0.000516
v 0.009017 -0.013198 -0.000516
v -0.009553 -0.013198 -0.000516
v 0.006953 0.016720 0.010833
v -0.015744 0.003308 -0.000516
v -0.006456 0.014657 -0.000516
v -0.017808 -0.001843 0.010833
v 0.007983 -0.016292 0.010833
v -0.006456 0.016720 0.010833
v 0.015208 -0.010101 0.011865
v 0.017271 0.005372 0.011865
v 0.009017 0.015690 0.011865
v -0.012647 -0.013198 0.010833
v -0.008520 0.013627 -0.000516
v -0.016774 -0.007007 0.011865
v 0.004889 -0.017325 0.010833
v -0.007489 -0.016292 0.010833
v -0.010583 0.014657 0.010833
v 0.006953 0.014657 -0.000516
v -0.014711 -0.005973 -0.000516
v -0.016774 0.006402 0.010833
v -0.013681 0.008466 -0.000516
v -0.002329 0.017754 0.011865
v -0.004392 -0.017325 0.011865
v -0.015744 -0.009071 0.010833
v 0.015208 -0.010101 0.010833
v 0.015208 0.009499 0.010833
f 7 21 57 
f 2 1 4 
f 5 6 7 
f 1 2 8 
f 6 5 9 
f 7 6 10 
f 2 4 11 
f 5 7 12 
f 4 1 13 
f 8 2 14 
f 9 5 16 
f 7 10 18 
f 6 9 19 
f 7 18 21 
f 5 12 23 
f 1 8 24 
f 16 5 25 
f 12 7 26 
f 7 17 26 
f 17 12 26 
f 2 3 27 
f 3 10 27 
f 1 24 28 
f 8 14 29 
f 12 17 30 
f 4 23 30 
f 23 12 30 
f 10 3 31 
f 18 10 31 
f 5 23 32 
f 9 16 33 
f 3 2 34 
f 31 3 34 
f 6 19 35 
f 10 6 36 
f 19 15 37 
f 35 19 37 
f 24 35 37 
f 20 13 38 
f 5 32 38 
f 32 20 38 
f 27 10 39 
f 10 36 39 
f 4 13 40 
f 13 20 40 
f 11 4 41 
f 17 11 41 
f 4 30 41 
f 30 17 41 
f 2 11 42 
f 11 21 42 
f 21 18 42 
f 34 2 42 
f 18 34 42 
f 1 28 43 
f 28 9 43 
f 33 1 43 
f 9 33 43 
f 36 6 44 
f 39 36 44 
f 28 24 45 
f 37 15 45 
f 24 37 45 
f 13 25 46 
f 25 5 46 
f 5 38 46 
f 38 13 46 
f 16 25 47 
f 1 33 47 
f 33 16 47 
f 29 14 48 
f 22 29 48 
f 14 39 48 
f 44 22 48 
f 39 44 48 
f 18 31 49 
f 34 18 49 
f 31 34 49 
f 19 9 50 
f 15 19 50 
f 24 8 51 
f 8 29 51 
f 6 35 51 
f 35 24 51 
f 29 22 52 
f 44 6 52 
f 22 44 52 
f 6 51 52 
f 51 29 52 
f 14 2 53 
f 2 27 53 
f 27 39 53 
f 39 14 53 
f 13 1 54 
f 25 13 54 
f 1 47 54 
f 47 25 54 
f 9 28 55 
f 45 15 55 
f 28 45 55 
f 50 9 55 
f 15 50 55 
f 23 4 56 
f 20 32 56 
f 32 23 56 
f 4 40 56 
f 40 20 56 
f 11 17 57 
f 17 7 57 
f 21 11 57 
o convex_1
v -0.034313 -0.004946 0.028369
v -0.007490 -0.020419 0.043849
v -0.016780 -0.000817 0.043849
v -0.007490 -0.000817 0.011868
v -0.028122 -0.023516 0.011868
v -0.028122 -0.023516 0.043849
v -0.007490 -0.023516 0.011868
v -0.028122 -0.000817 0.011868
v -0.034313 -0.014229 0.043849
v -0.034313 -0.000817 0.031465
v -0.007490 -0.023516 0.043849
v -0.007490 -0.000817 0.021153
v -0.022963 -0.000817 0.043849
v -0.034313 -0.010105 0.043849
v -0.034313 -0.012167 0.033528
v -0.034313 -0.000817 0.028369
v -0.034313 -0.014229 0.038687
v -0.034313 -0.009072 0.030432
f 62 72 75 
f 59 60 63 
f 61 59 64 
f 62 61 64 
f 63 62 64 
f 60 61 65 
f 62 58 65 
f 61 62 65 
f 62 63 66 
f 63 60 66 
f 60 65 67 
f 58 66 67 
f 59 63 68 
f 64 59 68 
f 63 64 68 
f 60 59 69 
f 61 60 69 
f 59 61 69 
f 66 60 70 
f 60 67 70 
f 70 67 71 
f 67 66 71 
f 66 70 71 
f 66 58 72 
f 65 58 73 
f 58 67 73 
f 67 65 73 
f 62 66 74 
f 72 62 74 
f 66 72 74 
f 58 62 75 
f 72 58 75 
o convex_2
v -0.021931 -0.021452 0.055198
v -0.006459 -0.000817 0.065516
v -0.006459 -0.004946 0.065516
v -0.006459 -0.020419 0.043849
v -0.034316 -0.000817 0.052106
v -0.016777 -0.000817 0.043849
v -0.028123 -0.023516 0.043849
v -0.028123 -0.008043 0.065516
v -0.006459 -0.020419 0.055198
v -0.034316 -0.014229 0.043849
v -0.031218 -0.016290 0.060354
v -0.028123 -0.000817 0.065516
v -0.021931 -0.015262 0.062417
v -0.006459 -0.023516 0.046948
v -0.028123 -0.023516 0.050040
v -0.022961 -0.000817 0.043849
v -0.006459 -0.000817 0.062417
v -0.034316 -0.002882 0.056227
v -0.006459 -0.013195 0.062417
v -0.034316 -0.010105 0.043849
v -0.028123 -0.020419 0.057259
v -0.006459 -0.023516 0.043849
v -0.031218 -0.018357 0.058292
v -0.034316 -0.012167 0.050040
v -0.006459 -0.009072 0.064483
v -0.006459 -0.022480 0.051073
v -0.028123 -0.015262 0.062417
v -0.021931 -0.020419 0.057259
v -0.021931 -0.011138 0.064483
v -0.034316 -0.000817 0.056227
v -0.034316 -0.008043 0.054167
v -0.021931 -0.023516 0.050040
v -0.021931 -0.008043 0.065516
v -0.021931 -0.022480 0.053139
v -0.028123 -0.011138 0.064483
v -0.028123 -0.022480 0.053139
f 90 109 111 
f 77 78 79 
f 80 77 81 
f 81 79 82 
f 78 77 83 
f 79 78 84 
f 81 82 85 
f 77 80 87 
f 83 77 87 
f 79 84 89 
f 85 82 90 
f 82 89 90 
f 80 81 91 
f 81 85 91 
f 77 79 92 
f 81 77 92 
f 79 81 92 
f 80 85 93 
f 86 83 93 
f 83 87 93 
f 84 78 94 
f 88 84 94 
f 85 80 95 
f 80 91 95 
f 91 85 95 
f 82 79 97 
f 79 89 97 
f 89 82 97 
f 85 90 98 
f 93 85 99 
f 85 98 99 
f 94 78 100 
f 88 94 100 
f 84 76 101 
f 89 84 101 
f 96 88 102 
f 86 98 102 
f 98 96 102 
f 76 84 103 
f 84 88 103 
f 96 76 103 
f 88 96 103 
f 88 100 104 
f 102 88 104 
f 87 80 105 
f 80 93 105 
f 93 87 105 
f 86 93 106 
f 98 86 106 
f 93 99 106 
f 99 98 106 
f 90 89 107 
f 89 101 107 
f 78 83 108 
f 100 78 108 
f 83 104 108 
f 104 100 108 
f 101 76 109 
f 90 107 109 
f 107 101 109 
f 83 86 110 
f 86 102 110 
f 104 83 110 
f 102 104 110 
f 76 96 111 
f 98 90 111 
f 96 98 111 
f 109 76 111 
o convex_3
v -0.034316 0.010536 0.040754
v -0.028123 -0.000817 0.011865
v -0.028123 0.023944 0.011865
v -0.005427 0.023944 0.040754
v -0.005427 -0.000817 0.011865
v -0.016778 -0.000817 0.040754
v -0.005427 0.023944 0.011865
v -0.028123 0.023944 0.040754
v -0.034316 -0.000817 0.028371
v -0.005427 -0.000817 0.021152
v -0.034316 0.013624 0.036625
v -0.022965 -0.000817 0.040754
v -0.005427 0.020849 0.040754
v -0.034316 -0.000817 0.031467
v -0.034316 0.007438 0.029403
v -0.034316 0.013624 0.040754
v -0.034316 0.010536 0.031467
v -0.034316 0.005375 0.028371
f 120 126 129 
f 113 114 116 
f 115 112 117 
f 113 116 117 
f 114 115 118 
f 115 116 118 
f 116 114 118 
f 115 114 119 
f 112 115 119 
f 114 113 120 
f 113 117 120 
f 116 115 121 
f 117 116 121 
f 119 114 122 
f 120 112 122 
f 117 112 123 
f 120 117 123 
f 115 117 124 
f 121 115 124 
f 117 121 124 
f 112 120 125 
f 123 112 125 
f 120 123 125 
f 120 122 126 
f 112 119 127 
f 122 112 127 
f 119 122 127 
f 122 114 128 
f 114 126 128 
f 126 122 128 
f 114 120 129 
f 126 114 129 
o convex_4
v -0.028123 0.013624 0.063449
v -0.005427 0.023944 0.043854
v -0.005427 0.023944 0.040756
v -0.005427 -0.000817 0.062416
v -0.022965 -0.000817 0.040756
v -0.028123 0.023944 0.040756
v -0.034316 -0.000817 0.056226
v -0.005427 0.014656 0.061386
v -0.034316 0.013624 0.040756
v -0.031219 0.017752 0.059321
v -0.028123 -0.000817 0.065511
v -0.016778 -0.000817 0.040756
v -0.005427 0.005375 0.065511
v -0.021933 0.022912 0.052106
v -0.005427 0.020849 0.054164
v -0.005427 0.020849 0.040756
v -0.034316 -0.000817 0.052106
v -0.021933 0.018782 0.059321
v -0.028123 0.007438 0.065511
v -0.005427 -0.000817 0.065511
v -0.034316 0.010536 0.040756
v -0.028123 0.022912 0.052106
v -0.034316 0.011563 0.051074
v -0.021933 0.011563 0.064481
v -0.028123 0.023944 0.045916
v -0.005427 0.022912 0.050044
v -0.031219 0.016721 0.060354
v -0.031219 0.018782 0.056226
v -0.034316 0.003310 0.056226
v -0.028123 0.018782 0.059321
v -0.005427 0.018782 0.057259
v -0.021933 0.020849 0.056226
v -0.021933 0.013624 0.063449
v -0.005427 0.008468 0.064481
v -0.034316 0.013624 0.046949
v -0.021933 0.017752 0.060354
v -0.034316 0.008468 0.054164
v -0.028123 0.011563 0.064481
v -0.028123 0.020849 0.056226
f 159 161 168 
f 132 131 133 
f 132 134 135 
f 131 132 135 
f 134 133 136 
f 133 131 137 
f 135 134 138 
f 136 133 140 
f 133 134 141 
f 134 132 141 
f 133 137 142 
f 137 131 144 
f 132 133 145 
f 141 132 145 
f 133 141 145 
f 134 136 146 
f 136 138 146 
f 136 140 148 
f 140 142 148 
f 140 133 149 
f 133 142 149 
f 142 140 149 
f 138 134 150 
f 134 146 150 
f 146 138 150 
f 138 136 152 
f 148 142 153 
f 131 135 154 
f 135 138 154 
f 143 131 154 
f 151 143 154 
f 131 143 155 
f 143 144 155 
f 144 131 155 
f 139 152 156 
f 139 151 157 
f 151 154 157 
f 136 148 158 
f 152 136 158 
f 148 156 158 
f 156 130 159 
f 139 156 159 
f 137 144 160 
f 144 147 160 
f 144 143 161 
f 147 144 161 
f 143 151 161 
f 159 147 161 
f 130 153 162 
f 153 137 162 
f 142 137 163 
f 137 153 163 
f 153 142 163 
f 138 152 164 
f 152 139 164 
f 154 138 164 
f 139 157 164 
f 157 154 164 
f 159 130 165 
f 147 159 165 
f 137 160 165 
f 160 147 165 
f 130 162 165 
f 162 137 165 
f 156 152 166 
f 152 158 166 
f 158 156 166 
f 153 130 167 
f 148 153 167 
f 130 156 167 
f 156 148 167 
f 151 139 168 
f 139 159 168 
f 161 151 168 
o convex_5
v -0.007490 -0.017321 0.026310
v 0.028621 -0.000817 0.025277
v 0.028621 -0.000817 0.011865
v 0.028621 -0.023516 0.011865
v -0.007490 -0.000817 0.011865
v 0.028621 -0.023516 0.026310
v -0.007490 -0.023516 0.011865
v -0.007490 -0.000817 0.021150
v 0.015203 -0.000817 0.026310
v -0.007490 -0.023516 0.017024
v -0.007490 -0.013195 0.026310
v 0.021392 -0.023516 0.026310
v 0.028621 -0.001851 0.026310
f 177 174 181 
f 171 170 172 
f 170 171 173 
f 171 172 173 
f 172 170 174 
f 172 174 175 
f 169 173 175 
f 173 172 175 
f 173 169 176 
f 170 173 176 
f 169 174 177 
f 170 176 177 
f 175 174 178 
f 169 175 178 
f 176 169 179 
f 169 177 179 
f 177 176 179 
f 174 169 180 
f 169 178 180 
f 178 174 180 
f 174 170 181 
f 170 177 181 
o convex_6
v 0.021396 -0.021452 0.055198
v 0.022427 -0.000817 0.065516
v 0.022427 -0.000817 0.045915
v 0.010049 -0.000817 0.060354
v 0.010049 -0.023516 0.043849
v 0.028621 -0.023516 0.043849
v 0.010049 -0.013195 0.062417
v 0.028621 -0.014229 0.062417
v 0.016243 -0.003915 0.043849
v 0.028621 -0.009072 0.055198
v 0.010049 -0.004946 0.065516
v 0.028621 -0.016290 0.043849
v 0.010049 -0.020419 0.055198
v 0.028621 -0.023516 0.050040
v 0.010049 -0.018357 0.043849
v 0.028621 -0.020419 0.057259
v 0.010049 -0.000817 0.065516
v 0.016243 -0.000817 0.046948
v 0.010049 -0.023516 0.046948
v 0.021396 -0.016290 0.061389
v 0.013147 -0.004946 0.047976
v 0.022427 -0.002882 0.043849
v 0.028621 -0.009072 0.060354
v 0.022427 -0.009072 0.064483
v 0.022427 -0.004946 0.065516
v 0.021396 -0.020419 0.057259
v 0.021396 -0.022480 0.053139
v 0.013147 -0.009072 0.064483
v 0.028621 -0.016290 0.061389
v 0.028621 -0.012167 0.062417
v 0.010049 -0.021452 0.053139
v 0.021396 -0.023516 0.050040
f 212 200 213 
f 183 184 185 
f 185 186 188 
f 187 186 190 
f 184 183 191 
f 189 187 191 
f 185 188 192 
f 187 190 193 
f 184 191 193 
f 191 187 193 
f 188 186 194 
f 186 187 195 
f 187 189 195 
f 186 185 196 
f 190 186 196 
f 195 189 197 
f 183 185 198 
f 192 183 198 
f 185 192 198 
f 185 184 199 
f 194 186 200 
f 186 195 200 
f 188 194 201 
f 196 185 202 
f 190 196 202 
f 185 199 202 
f 199 190 202 
f 184 193 203 
f 193 190 203 
f 199 184 203 
f 190 199 203 
f 191 183 204 
f 189 191 204 
f 189 183 206 
f 183 192 206 
f 205 189 206 
f 192 205 206 
f 182 197 207 
f 201 194 207 
f 197 201 207 
f 197 182 208 
f 195 197 208 
f 192 188 209 
f 188 201 209 
f 201 189 209 
f 189 205 209 
f 205 192 209 
f 197 189 210 
f 189 201 210 
f 201 197 210 
f 183 189 211 
f 204 183 211 
f 189 204 211 
f 194 200 212 
f 182 207 212 
f 207 194 212 
f 208 182 212 
f 208 212 213 
f 200 195 213 
f 195 208 213 
o convex_7
v -0.005427 -0.000817 0.017023
v 0.028621 0.023944 0.018054
v 0.028621 0.023944 0.011866
v 0.028621 -0.000817 0.018054
v 0.028621 -0.000817 0.011866
v -0.005427 0.023944 0.011866
v -0.005427 0.023944 0.017023
v -0.005427 -0.000817 0.011866
v 0.018302 -0.000817 0.018054
v 0.018302 0.023944 0.018054
f 222 215 223 
f 216 215 217 
f 217 214 218 
f 216 217 218 
f 216 218 219 
f 215 216 219 
f 219 214 220 
f 215 219 220 
f 218 214 221 
f 219 218 221 
f 214 219 221 
f 217 215 222 
f 214 217 222 
f 220 214 222 
f 220 222 223 
f 215 220 223 
o convex_8
v 0.021398 0.023944 0.046949
v 0.022428 0.005375 0.065511
v 0.022428 0.008468 0.064481
v 0.009017 0.005375 0.065511
v 0.022428 0.003310 0.040756
v 0.009017 0.023944 0.040756
v 0.028621 0.023944 0.040756
v 0.010050 0.001248 0.049011
v 0.028621 0.016721 0.061386
v 0.009017 0.018782 0.057259
v 0.022428 -0.000817 0.065511
v 0.025522 0.001248 0.049011
v 0.009017 -0.000817 0.062416
v 0.022428 -0.000817 0.045916
v 0.028621 0.009503 0.061386
v 0.016240 0.004343 0.040756
v 0.028621 0.016721 0.040756
v 0.028621 0.022912 0.052106
v 0.009017 0.022912 0.050044
v 0.009017 0.011563 0.063449
v 0.021398 0.018782 0.059321
v 0.016240 -0.000817 0.046949
v 0.009017 -0.000817 0.065511
v 0.009017 0.020849 0.040756
v 0.028621 0.009503 0.055196
v 0.028621 0.014656 0.062416
v 0.013147 0.009503 0.040756
v 0.021398 0.020849 0.056226
v 0.021398 0.016721 0.061386
v 0.025522 0.001248 0.053134
v 0.028621 0.020849 0.056226
v 0.010050 0.002278 0.047979
v 0.009017 0.014656 0.061386
v 0.028621 0.023944 0.046949
v 0.021398 0.022912 0.052106
v 0.009017 0.020849 0.054164
v 0.009017 0.023944 0.042821
v 0.020366 0.003310 0.040756
v 0.028621 0.011563 0.062416
f 238 249 262 
f 225 226 227 
f 228 229 230 
f 229 224 230 
f 229 227 233 
f 225 227 234 
f 227 229 236 
f 234 236 237 
f 235 234 237 
f 228 235 237 
f 230 232 238 
f 229 228 239 
f 228 230 240 
f 235 228 240 
f 230 238 240 
f 232 230 241 
f 229 233 242 
f 227 226 243 
f 233 227 243 
f 236 231 245 
f 237 236 245 
f 231 239 245 
f 234 227 246 
f 227 236 246 
f 236 234 246 
f 236 229 247 
f 229 239 247 
f 238 235 248 
f 235 240 248 
f 240 238 248 
f 226 225 249 
f 225 234 249 
f 238 232 249 
f 243 226 249 
f 247 239 250 
f 233 244 251 
f 244 233 252 
f 232 244 252 
f 249 232 252 
f 243 249 252 
f 234 235 253 
f 238 234 253 
f 235 238 253 
f 232 241 254 
f 244 232 254 
f 241 251 254 
f 251 244 254 
f 231 236 255 
f 239 231 255 
f 236 247 255 
f 250 239 255 
f 247 250 255 
f 233 243 256 
f 252 233 256 
f 243 252 256 
f 230 224 257 
f 224 241 257 
f 241 230 257 
f 241 224 258 
f 224 242 258 
f 251 241 258 
f 242 251 258 
f 242 233 259 
f 233 251 259 
f 251 242 259 
f 224 229 260 
f 242 224 260 
f 229 242 260 
f 228 237 261 
f 239 228 261 
f 237 245 261 
f 245 239 261 
f 234 238 262 
f 249 234 262 
o convex_9
v 0.010049 -0.023516 0.043847
v -0.007490 -0.018358 0.026311
v -0.007490 -0.014232 0.026311
v -0.007490 -0.020419 0.043847
v 0.010049 -0.014232 0.027343
v 0.010049 -0.021451 0.030438
v -0.007490 -0.023516 0.036625
v 0.010049 -0.020419 0.043847
v 0.010049 -0.018358 0.026311
v -0.007490 -0.023516 0.043847
v 0.010049 -0.023516 0.036625
v -0.007490 -0.021451 0.030438
v -0.007490 -0.014232 0.027343
v 0.010049 -0.014232 0.026311
v 0.010049 -0.019388 0.027343
v -0.007490 -0.019388 0.027343
f 264 277 278 
f 265 264 266 
f 267 263 268 
f 266 264 269 
f 266 263 270 
f 263 267 270 
f 267 266 270 
f 264 265 271 
f 267 268 271 
f 263 266 272 
f 266 269 272 
f 269 263 272 
f 268 263 273 
f 263 269 273 
f 269 268 273 
f 269 264 274 
f 268 269 274 
f 265 266 275 
f 266 267 275 
f 267 265 275 
f 265 267 276 
f 271 265 276 
f 267 271 276 
f 264 271 277 
f 271 268 277 
f 268 274 277 
f 277 274 278 
f 274 264 278 
o convex_10
v 0.020366 -0.000817 0.038689
v 0.010049 -0.023516 0.036625
v 0.010049 -0.023516 0.043847
v 0.028621 -0.023516 0.043847
v 0.028621 -0.023516 0.026311
v 0.013147 -0.000817 0.027343
v 0.028621 -0.005977 0.026311
v 0.010049 -0.018357 0.026311
v 0.010049 -0.007010 0.042816
v 0.022427 -0.003915 0.043847
v 0.028621 -0.016290 0.043847
v 0.022427 -0.000817 0.026311
v 0.010049 -0.010105 0.026311
v 0.021396 -0.023516 0.026311
v 0.016243 -0.000817 0.037657
v 0.022427 -0.000817 0.038689
v 0.025523 -0.007010 0.042816
v 0.016243 -0.004946 0.043847
v 0.010049 -0.021452 0.030438
v 0.013147 -0.000817 0.031470
v 0.015208 -0.000817 0.026311
v 0.028621 -0.005977 0.027343
v 0.010049 -0.007010 0.038689
v 0.010049 -0.018357 0.043847
v 0.020366 -0.003915 0.043847
f 293 296 303 
f 281 280 282 
f 282 280 283 
f 282 283 285 
f 280 281 286 
f 285 283 286 
f 286 281 287 
f 281 282 288 
f 282 285 289 
f 288 282 289 
f 284 279 290 
f 285 286 290 
f 290 286 291 
f 286 287 291 
f 283 280 292 
f 286 283 292 
f 279 284 293 
f 279 288 294 
f 290 279 294 
f 285 290 294 
f 288 289 295 
f 294 288 295 
f 281 288 296 
f 293 287 296 
f 280 286 297 
f 292 280 297 
f 286 292 297 
f 284 287 298 
f 293 284 298 
f 287 293 298 
f 284 290 299 
f 290 291 299 
f 291 284 299 
f 289 285 300 
f 285 294 300 
f 295 289 300 
f 294 295 300 
f 287 284 301 
f 284 291 301 
f 291 287 301 
f 287 281 302 
f 281 296 302 
f 296 287 302 
f 288 279 303 
f 279 293 303 
f 296 288 303 
o convex_11
v 0.010049 -0.017327 0.058294
v -0.006459 -0.023515 0.043849
v -0.006459 -0.020420 0.043849
v -0.006459 -0.013198 0.058294
v 0.010049 -0.020420 0.043849
v -0.006459 -0.020420 0.055197
v 0.010049 -0.023515 0.046946
v 0.010049 -0.013198 0.057261
v 0.010049 -0.020420 0.055197
v -0.006459 -0.022483 0.051071
v -0.006459 -0.017327 0.058294
v 0.010049 -0.023515 0.043849
v -0.006459 -0.013198 0.057261
v 0.010049 -0.013198 0.058294
v 0.010049 -0.022483 0.051071
v -0.006459 -0.023515 0.046946
f 313 305 319 
f 306 305 307 
f 305 306 308 
f 307 305 309 
f 308 304 310 
f 304 308 311 
f 308 306 311 
f 304 309 312 
f 310 304 312 
f 309 305 313 
f 312 309 313 
f 304 307 314 
f 309 304 314 
f 307 309 314 
f 305 308 315 
f 308 310 315 
f 310 305 315 
f 306 307 316 
f 311 306 316 
f 307 311 316 
f 307 304 317 
f 311 307 317 
f 304 311 317 
f 310 312 318 
f 313 310 318 
f 312 313 318 
f 305 310 319 
f 310 313 319 
o convex_12
v -0.006459 -0.016294 0.059327
v 0.010049 -0.000817 0.065516
v 0.010049 -0.000817 0.062420
v -0.006459 -0.000817 0.065516
v 0.010049 -0.013197 0.062420
v -0.006459 -0.012166 0.058294
v 0.010049 -0.016294 0.058294
v -0.006459 -0.009069 0.064483
v -0.006459 -0.000817 0.062420
v 0.010049 -0.004946 0.065516
v 0.010049 -0.012166 0.058294
v -0.006459 -0.013197 0.062420
v -0.006459 -0.004946 0.065516
v -0.006459 -0.016294 0.058294
v 0.010049 -0.009069 0.064483
v 0.010049 -0.016294 0.059327
f 326 324 335 
f 321 322 323 
f 322 321 324 
f 320 323 325 
f 322 324 326 
f 323 320 327 
f 323 322 328 
f 322 325 328 
f 325 323 328 
f 321 323 329 
f 324 321 329 
f 325 322 330 
f 322 326 330 
f 326 325 330 
f 320 324 331 
f 327 320 331 
f 324 327 331 
f 323 327 332 
f 329 323 332 
f 327 329 332 
f 320 325 333 
f 326 320 333 
f 325 326 333 
f 327 324 334 
f 324 329 334 
f 329 327 334 
f 324 320 335 
f 320 326 335 
o convex_13
v 0.020366 -0.000817 0.037655
v 0.028621 0.023944 0.040754
v 0.028621 0.023944 0.018058
v 0.010049 0.023944 0.039719
v 0.010049 -0.000817 0.018058
v 0.028621 -0.000817 0.018058
v 0.020366 0.023944 0.018058
v 0.010049 0.003310 0.036624
v 0.022427 0.003310 0.040754
v 0.010049 0.017752 0.025280
v 0.028621 -0.000817 0.025280
v 0.010049 0.018782 0.040754
v 0.028621 0.016721 0.040754
v 0.010049 0.007438 0.019091
v 0.016243 0.004343 0.040754
v 0.016243 -0.000817 0.036624
v 0.025523 0.003310 0.036624
v 0.010049 0.020849 0.029406
v 0.022427 -0.000817 0.037655
v 0.010049 -0.000817 0.023216
v 0.010049 0.023944 0.040754
v 0.010049 0.013624 0.022186
v 0.010049 0.022912 0.034560
v 0.013147 0.010536 0.040754
v 0.010049 0.001248 0.018058
f 349 342 360 
f 337 338 339 
f 340 338 341 
f 338 337 341 
f 336 340 341 
f 339 338 342 
f 338 340 342 
f 339 340 343 
f 340 339 345 
f 341 337 346 
f 336 341 346 
f 339 343 347 
f 344 337 347 
f 337 344 348 
f 346 337 348 
f 340 345 349 
f 336 344 350 
f 344 347 350 
f 340 336 351 
f 336 350 351 
f 350 343 351 
f 348 344 352 
f 346 348 352 
f 345 339 353 
f 342 345 353 
f 344 336 354 
f 336 346 354 
f 352 344 354 
f 346 352 354 
f 343 340 355 
f 340 351 355 
f 351 343 355 
f 337 339 356 
f 347 337 356 
f 339 347 356 
f 345 342 357 
f 342 349 357 
f 349 345 357 
f 339 342 358 
f 353 339 358 
f 342 353 358 
f 347 343 359 
f 343 350 359 
f 350 347 359 
f 342 340 360 
f 340 349 360 
o convex_14
v 0.009017 0.020848 0.054166
v -0.005427 0.020848 0.040754
v -0.005427 0.023944 0.040754
v -0.005427 0.019819 0.055198
v 0.009017 0.016722 0.053134
v 0.009017 0.023944 0.040754
v -0.005427 0.016722 0.055198
v 0.009017 0.020848 0.040754
v -0.005427 0.022912 0.050038
v 0.009017 0.022912 0.050038
v 0.009017 0.016722 0.055198
v -0.005427 0.016722 0.053134
v 0.000765 0.023944 0.043850
v 0.009017 0.019819 0.055198
v -0.005427 0.020848 0.054166
v -0.005427 0.023944 0.043850
v 0.009017 0.023944 0.042818
f 373 370 377 
f 363 362 364 
f 362 363 366 
f 361 365 366 
f 364 362 367 
f 365 362 368 
f 362 366 368 
f 366 365 368 
f 363 364 369 
f 361 366 370 
f 369 361 370 
f 365 361 371 
f 364 367 371 
f 367 365 371 
f 362 365 372 
f 367 362 372 
f 365 367 372 
f 366 363 373 
f 369 370 373 
f 361 364 374 
f 371 361 374 
f 364 371 374 
f 364 361 375 
f 369 364 375 
f 361 369 375 
f 363 369 376 
f 373 363 376 
f 369 373 376 
f 370 366 377 
f 366 373 377 
o convex_15
v 0.009017 0.014658 0.061388
v -0.005427 -0.000817 0.062420
v 0.009017 -0.000817 0.062420
v 0.009017 0.015689 0.055199
v -0.005427 0.018786 0.057264
v -0.005427 0.005375 0.065516
v 0.009017 -0.000817 0.065516
v -0.005427 0.015689 0.055199
v 0.009017 0.005375 0.065516
v 0.009017 0.018786 0.055199
v -0.005427 0.014658 0.061388
v -0.005427 -0.000817 0.065516
v 0.004890 0.011563 0.063451
v 0.009017 0.018786 0.057264
v -0.005427 0.018786 0.055199
v -0.005427 0.008470 0.064483
v 0.009017 0.011563 0.063451
f 390 386 394 
f 380 379 381 
f 378 380 381 
f 382 379 383 
f 380 378 384 
f 379 380 384 
f 381 379 385 
f 379 382 385 
f 384 378 386 
f 383 384 386 
f 378 381 387 
f 381 385 387 
f 378 382 388 
f 382 383 388 
f 383 379 389 
f 379 384 389 
f 384 383 389 
f 383 386 390 
f 378 388 390 
f 382 378 391 
f 378 387 391 
f 387 382 391 
f 385 382 392 
f 382 387 392 
f 387 385 392 
f 388 383 393 
f 383 390 393 
f 390 388 393 
f 386 378 394 
f 378 390 394 
o convex_16
v 0.010049 0.013624 0.022184
v -0.005427 -0.000817 0.018056
v -0.005427 -0.000817 0.021152
v -0.005427 0.017754 0.027339
v 0.010049 -0.000817 0.021152
v 0.010049 0.013624 0.027339
v -0.005427 0.010532 0.020120
v 0.010049 0.001249 0.018056
v 0.010049 0.017754 0.025276
v -0.005427 0.013624 0.027339
v -0.005427 0.016721 0.024245
v 0.010049 0.007438 0.019089
v 0.010049 0.017754 0.027339
v -0.005427 0.007438 0.019089
v 0.010049 -0.000817 0.018056
v 0.010049 0.010532 0.020120
v -0.005427 0.001249 0.018056
v -0.005427 0.017754 0.025276
f 403 405 412 
f 396 397 398 
f 397 396 399 
f 397 399 400 
f 399 395 400 
f 396 398 401 
f 395 399 402 
f 400 395 403 
f 398 397 404 
f 397 400 404 
f 400 398 404 
f 401 398 405 
f 403 395 405 
f 395 402 406 
f 398 400 407 
f 403 398 407 
f 400 403 407 
f 396 401 408 
f 401 406 408 
f 406 402 408 
f 399 396 409 
f 402 399 409 
f 396 402 409 
f 405 395 410 
f 401 405 410 
f 406 401 410 
f 395 406 410 
f 402 396 411 
f 396 408 411 
f 408 402 411 
f 398 403 412 
f 405 398 412 
o convex_17
v 0.010049 0.023944 0.039721
v -0.005427 0.015690 0.027341
v -0.005427 0.018786 0.027341
v -0.005427 0.023944 0.040751
v 0.010049 0.015690 0.029406
v -0.005427 0.020849 0.040751
v 0.010049 0.020849 0.029406
v 0.010049 0.020849 0.040751
v -0.005427 0.021880 0.031470
v 0.010049 0.018786 0.027341
v -0.005427 0.015690 0.029406
v 0.010049 0.015690 0.027341
v 0.010049 0.022911 0.034562
v -0.005427 0.022911 0.034562
v 0.010049 0.023944 0.040751
v -0.005427 0.020849 0.029406
f 421 419 428 
f 415 414 416 
f 416 414 418 
f 413 417 419 
f 417 413 420 
f 418 417 420 
f 416 418 420 
f 415 416 421 
f 414 415 422 
f 415 419 422 
f 419 417 422 
f 414 417 423 
f 418 414 423 
f 417 418 423 
f 417 414 424 
f 414 422 424 
f 422 417 424 
f 413 419 425 
f 419 421 425 
f 425 421 426 
f 416 413 426 
f 421 416 426 
f 413 425 426 
f 413 416 427 
f 420 413 427 
f 416 420 427 
f 419 415 428 
f 415 421 428 
