o convex_0
v -0.051686 0.021373 0.097952
v -0.045975 -0.030052 0.040811
v -0.030738 -0.030052 0.040811
v -0.030738 0.027089 0.025571
v -0.059310 0.023274 0.025571
v -0.030738 -0.024336 0.097952
v -0.059310 -0.022429 0.096047
v -0.032648 0.030897 0.096047
v -0.059310 -0.024336 0.025571
v -0.059310 0.023274 0.094141
v -0.030738 -0.028145 0.025571
v -0.051686 -0.030052 0.096047
v -0.040267 0.032805 0.086510
v -0.030738 0.023280 0.097952
v -0.055495 0.027089 0.025571
v -0.030738 -0.030052 0.096047
v -0.036457 0.030897 0.040811
v -0.059310 -0.012904 0.097952
v -0.053590 -0.028145 0.025571
v -0.053590 0.027089 0.096047
v -0.030738 0.028990 0.038906
v -0.036457 0.032805 0.094141
v -0.059310 0.013749 0.097952
v -0.030738 0.028990 0.096047
v -0.040267 0.030897 0.040811
v -0.049781 0.028990 0.094141
v -0.049781 -0.022429 0.097952
v -0.040267 0.032805 0.094141
v -0.042168 0.030897 0.096047
v -0.055495 0.027089 0.037014
v -0.059310 -0.024336 0.037014
v -0.036457 0.032805 0.086510
v -0.051686 -0.030052 0.086510
v -0.047879 0.023274 0.097952
v -0.032648 0.030897 0.076995
v -0.059310 0.021373 0.096047
v -0.049781 0.028990 0.040811
v -0.044073 -0.024336 0.097952
f 27 12 38 
f 3 4 6 
f 5 4 9 
f 7 5 9 
f 5 7 10 
f 3 2 11 
f 4 3 11 
f 9 4 11 
f 2 3 12 
f 1 6 14 
f 6 4 14 
f 4 5 15 
f 5 10 15 
f 3 6 16 
f 12 3 16 
f 6 12 16 
f 4 15 17 
f 6 1 18 
f 10 7 18 
f 7 12 18 
f 11 2 19 
f 9 11 19 
f 14 4 21 
f 4 17 21 
f 18 1 23 
f 10 18 23 
f 8 14 24 
f 14 21 24 
f 21 8 24 
f 13 17 25 
f 17 15 25 
f 6 18 27 
f 18 12 27 
f 13 15 28 
f 22 13 28 
f 8 22 28 
f 26 20 28 
f 14 8 29 
f 8 28 29 
f 28 20 29 
f 15 10 30 
f 10 20 30 
f 20 26 30 
f 28 15 30 
f 26 28 30 
f 7 9 31 
f 12 7 31 
f 9 12 31 
f 17 13 32 
f 21 17 32 
f 13 22 32 
f 22 8 32 
f 2 12 33 
f 12 9 33 
f 19 2 33 
f 9 19 33 
f 1 14 34 
f 20 1 34 
f 14 29 34 
f 29 20 34 
f 8 21 35 
f 32 8 35 
f 21 32 35 
f 1 20 36 
f 20 10 36 
f 23 1 36 
f 10 23 36 
f 15 13 37 
f 13 25 37 
f 25 15 37 
f 12 6 38 
f 6 27 38 
o convex_1
v -0.015502 -0.020521 0.038911
v -0.028833 0.023279 0.097947
v -0.026928 0.028995 0.096039
v -0.005976 -0.009089 0.096039
v -0.030738 -0.030052 0.094132
v -0.030738 0.027088 0.038911
v -0.009786 0.013754 0.040818
v -0.030738 -0.028145 0.038911
v -0.011692 0.021372 0.094132
v -0.023115 -0.030052 0.096039
v -0.007881 -0.009089 0.040818
v -0.019305 0.025180 0.040818
v -0.030738 0.028995 0.096039
v -0.017409 -0.024330 0.040818
v -0.007881 0.008037 0.040818
v -0.030738 -0.022429 0.097947
v -0.007881 0.008037 0.096039
v -0.028833 -0.030052 0.042725
v -0.013599 -0.020521 0.040818
v -0.013599 -0.007187 0.097947
v -0.026928 0.028995 0.040818
v -0.009786 0.011852 0.038911
v -0.013599 -0.020521 0.094132
v -0.005976 -0.003378 0.076991
v -0.017409 0.015661 0.097947
v -0.011692 0.017563 0.040818
v -0.030738 0.028995 0.040818
v -0.023115 -0.030052 0.086515
v -0.011692 0.019470 0.096039
v -0.005976 -0.009089 0.086515
v -0.011692 0.021372 0.086515
v -0.009786 -0.010996 0.038911
v -0.021212 0.025180 0.038911
v -0.017409 -0.014811 0.097947
v -0.005976 -0.003378 0.096039
v -0.030738 -0.030052 0.042725
v -0.030738 0.023279 0.097947
v -0.013599 0.006136 0.097947
v -0.026928 -0.028145 0.038911
v -0.015502 -0.022429 0.096039
v -0.028833 -0.030052 0.096039
v -0.005976 -0.007187 0.076991
v -0.019305 0.025180 0.096039
v -0.023115 -0.020521 0.097947
v -0.025023 -0.028145 0.040818
f 56 77 83 
f 43 44 46 
f 44 39 46 
f 40 41 51 
f 44 43 51 
f 51 43 54 
f 53 47 55 
f 48 43 56 
f 52 39 57 
f 40 54 58 
f 41 47 59 
f 51 41 59 
f 39 44 60 
f 45 53 60 
f 53 49 60 
f 57 42 61 
f 49 53 62 
f 53 55 62 
f 40 58 63 
f 45 60 64 
f 44 51 65 
f 59 44 65 
f 51 59 65 
f 48 56 66 
f 52 57 66 
f 55 47 67 
f 42 57 68 
f 57 49 68 
f 62 42 68 
f 53 45 69 
f 47 53 69 
f 59 47 69 
f 50 59 69 
f 45 64 69 
f 64 50 69 
f 57 39 70 
f 49 57 70 
f 39 60 70 
f 60 49 70 
f 44 59 71 
f 59 50 71 
f 60 44 71 
f 50 64 71 
f 64 60 71 
f 42 58 72 
f 58 54 72 
f 58 42 73 
f 42 62 73 
f 62 55 73 
f 43 46 74 
f 56 43 74 
f 46 56 74 
f 40 51 75 
f 54 40 75 
f 51 54 75 
f 63 58 76 
f 55 67 76 
f 67 63 76 
f 58 73 76 
f 73 55 76 
f 46 39 77 
f 39 52 77 
f 56 46 77 
f 61 42 78 
f 57 61 78 
f 48 66 78 
f 66 57 78 
f 42 72 78 
f 72 48 78 
f 43 48 79 
f 48 54 79 
f 54 43 79 
f 49 62 80 
f 68 49 80 
f 62 68 80 
f 41 40 81 
f 47 41 81 
f 40 63 81 
f 67 47 81 
f 63 67 81 
f 54 48 82 
f 48 72 82 
f 72 54 82 
f 66 56 83 
f 52 66 83 
f 77 52 83 
o convex_2
v -0.076451 0.013749 -0.016328
v -0.072640 -0.024333 0.025570
v -0.059310 -0.024333 0.025570
v -0.072640 0.023276 0.036997
v -0.059310 0.023276 0.025570
v -0.068831 -0.009096 -0.020143
v -0.059310 0.004226 -0.006809
v -0.076451 -0.020525 0.036997
v -0.076451 -0.018623 -0.010618
v -0.059310 -0.014811 0.038905
v -0.068831 0.019463 -0.010618
v -0.076451 0.019463 0.036997
v -0.059310 0.023276 0.036997
v -0.074545 0.021370 -0.004901
v -0.068831 -0.020525 -0.008710
v -0.059310 -0.005288 -0.006809
v -0.068831 0.009941 -0.020143
v -0.059310 -0.024333 0.036997
v -0.076451 -0.005288 -0.020143
v -0.063122 0.011847 0.038905
v -0.072640 -0.024333 0.036997
v -0.076451 -0.020525 -0.004901
v -0.076451 0.019463 -0.008710
v -0.068831 -0.018623 -0.012519
v -0.074545 -0.012909 -0.018235
v -0.065026 -0.007194 0.038905
v -0.074545 0.009941 -0.020143
v -0.059310 0.015655 0.038905
v -0.072640 0.023276 0.025570
v -0.068831 0.021370 -0.004901
v -0.059310 0.006132 -0.004901
v -0.068831 -0.012909 -0.018235
v -0.074545 -0.020525 -0.008710
v -0.074545 0.019463 -0.010618
v -0.076451 0.006132 -0.020143
v -0.074545 -0.018623 -0.012519
v -0.076451 -0.011002 -0.018235
v -0.074545 -0.009096 -0.020143
v -0.065026 0.006132 0.038905
f 109 103 122 
f 88 86 90 
f 91 84 92 
f 86 88 93 
f 84 91 95 
f 88 87 96 
f 93 88 96 
f 86 85 98 
f 89 90 99 
f 90 86 99 
f 90 89 100 
f 94 90 100 
f 85 86 101 
f 86 93 101 
f 92 84 102 
f 100 89 102 
f 87 95 103 
f 91 85 104 
f 93 91 104 
f 85 101 104 
f 101 93 104 
f 85 91 105 
f 91 92 105 
f 84 95 106 
f 95 87 106 
f 86 98 107 
f 99 86 107 
f 91 93 109 
f 95 91 109 
f 93 103 109 
f 94 100 110 
f 100 102 110 
f 96 87 111 
f 93 96 111 
f 103 93 111 
f 87 103 111 
f 87 88 112 
f 88 97 112 
f 106 87 112 
f 97 106 112 
f 88 94 113 
f 97 88 113 
f 94 97 113 
f 88 90 114 
f 94 88 114 
f 90 94 114 
f 89 99 115 
f 99 107 115 
f 108 89 115 
f 107 108 115 
f 98 85 116 
f 85 105 116 
f 105 92 116 
f 107 98 116 
f 97 94 117 
f 84 106 117 
f 106 97 117 
f 110 84 117 
f 94 110 117 
f 102 84 118 
f 84 110 118 
f 110 102 118 
f 92 108 119 
f 108 107 119 
f 116 92 119 
f 107 116 119 
f 92 102 120 
f 108 92 120 
f 108 120 121 
f 102 89 121 
f 89 108 121 
f 120 102 121 
f 103 95 122 
f 95 109 122 
o convex_3
v -0.059310 0.021376 0.096039
v -0.061216 -0.020529 0.040818
v -0.063120 -0.018621 0.040818
v -0.063120 -0.018621 0.096039
v -0.066927 0.011848 0.040818
v -0.068832 -0.001479 0.096039
v -0.059310 0.019465 0.038911
v -0.059310 -0.020529 0.096039
v -0.063120 0.021376 0.096039
v -0.066927 -0.011004 0.040818
v -0.059310 -0.018621 0.038911
v -0.068832 -0.009097 0.076991
v -0.066927 0.011848 0.094132
v -0.061216 0.019465 0.038911
v -0.059310 -0.009097 0.097947
v -0.068832 -0.009097 0.096039
v -0.066927 -0.007193 0.038911
v -0.063120 0.021376 0.076991
v -0.061216 0.009940 0.097947
v -0.059310 0.021376 0.061768
v -0.068832 -0.001479 0.076991
v -0.065023 0.015654 0.040818
v -0.061216 -0.020529 0.096039
v -0.059310 -0.020529 0.040818
v -0.066927 0.006134 0.038911
v -0.061216 -0.009097 0.097947
v -0.066927 0.009940 0.096039
v -0.063120 -0.016718 0.038911
v -0.059310 0.009940 0.097947
v -0.061216 0.021376 0.061768
f 140 142 152 
f 125 124 126 
f 129 123 130 
f 129 130 133 
f 125 126 134 
f 132 125 134 
f 127 128 135 
f 131 127 135 
f 129 133 136 
f 130 123 137 
f 134 126 138 
f 128 134 138 
f 132 134 139 
f 136 133 139 
f 127 131 140 
f 131 123 140 
f 123 131 141 
f 128 138 141 
f 123 129 142 
f 129 136 142 
f 140 123 142 
f 128 127 143 
f 134 128 143 
f 139 134 143 
f 136 127 144 
f 127 140 144 
f 140 136 144 
f 126 124 145 
f 124 130 145 
f 130 137 145 
f 130 124 146 
f 124 133 146 
f 133 130 146 
f 127 136 147 
f 136 139 147 
f 143 127 147 
f 139 143 147 
f 138 126 148 
f 137 141 148 
f 141 138 148 
f 126 145 148 
f 145 137 148 
f 135 128 149 
f 131 135 149 
f 128 141 149 
f 141 131 149 
f 124 125 150 
f 125 132 150 
f 133 124 150 
f 132 139 150 
f 139 133 150 
f 137 123 151 
f 123 141 151 
f 141 137 151 
f 136 140 152 
f 142 136 152 
o convex_4
v -0.007878 -0.007194 -0.023948
v -0.000263 0.023276 0.023662
v -0.007878 0.023276 0.023662
v -0.007878 -0.024333 0.023662
v 0.001643 -0.022432 -0.006804
v -0.015500 0.015655 -0.012518
v 0.001643 0.019463 -0.012518
v -0.015500 -0.018623 0.006523
v 0.001643 -0.022432 0.023662
v -0.015500 0.008034 0.017952
v -0.015500 -0.016717 -0.010612
v -0.000263 0.008034 -0.023948
v -0.007878 0.023276 -0.008706
v -0.007878 -0.024333 -0.004897
v 0.001643 -0.014811 -0.018233
v 0.001643 0.021370 0.023662
v -0.015500 0.006132 -0.018233
v -0.015500 0.017562 0.008424
v -0.007878 0.015655 -0.020135
v -0.007878 -0.020525 -0.014420
v -0.015500 -0.007194 0.017952
v -0.000263 0.023276 -0.008706
v -0.000263 -0.024333 -0.004897
v -0.007878 0.008034 -0.023948
v -0.015500 -0.007194 -0.018233
v 0.001643 -0.007194 -0.022041
v -0.000263 0.019463 -0.016327
v -0.007878 -0.014811 -0.020135
v -0.000263 -0.007194 -0.023948
v -0.000263 -0.020525 -0.014420
v -0.000263 -0.024333 0.023662
v 0.001643 0.008034 -0.022041
v -0.015500 0.017562 -0.008706
v -0.007878 0.019463 -0.016327
v -0.000263 -0.014811 -0.020135
v -0.015500 -0.018623 -0.004897
v -0.015500 -0.016717 0.010331
v -0.000263 0.015655 -0.020135
v -0.015500 0.015655 0.012237
v 0.001643 0.021370 -0.008706
v -0.007878 -0.022432 -0.010612
v -0.015500 -0.011002 -0.016327
v -0.015500 -0.011002 0.016046
v -0.015500 0.011847 0.016046
v -0.015500 0.013749 -0.014420
f 171 169 197 
f 154 155 156 
f 154 156 161 
f 157 159 161 
f 156 155 162 
f 158 160 162 
f 160 158 163 
f 155 154 165 
f 156 160 166 
f 159 157 167 
f 154 161 168 
f 161 159 168 
f 163 158 169 
f 158 162 170 
f 155 165 170 
f 156 162 173 
f 162 160 173 
f 165 154 174 
f 154 168 174 
f 157 161 175 
f 156 166 175 
f 164 153 176 
f 153 169 176 
f 171 164 176 
f 169 171 176 
f 169 153 177 
f 163 169 177 
f 159 167 178 
f 165 174 179 
f 174 159 179 
f 172 163 180 
f 177 153 180 
f 153 164 181 
f 164 178 181 
f 178 167 181 
f 180 153 181 
f 167 157 182 
f 157 175 182 
f 172 180 182 
f 161 156 183 
f 156 175 183 
f 175 161 183 
f 178 164 184 
f 159 178 184 
f 165 158 185 
f 158 170 185 
f 170 165 185 
f 158 165 186 
f 171 158 186 
f 179 171 186 
f 165 179 186 
f 181 167 187 
f 180 181 187 
f 167 182 187 
f 182 180 187 
f 160 163 188 
f 166 160 188 
f 160 156 189 
f 173 160 189 
f 164 171 190 
f 179 159 190 
f 171 179 190 
f 184 164 190 
f 159 184 190 
f 155 170 191 
f 170 162 191 
f 168 159 192 
f 174 168 192 
f 159 174 192 
f 163 172 193 
f 175 166 193 
f 182 175 193 
f 172 182 193 
f 188 163 193 
f 166 188 193 
f 163 177 194 
f 180 163 194 
f 177 180 194 
f 156 173 195 
f 189 156 195 
f 173 189 195 
f 162 155 196 
f 155 191 196 
f 191 162 196 
f 169 158 197 
f 158 171 197 
o convex_5
v -0.011695 0.009945 0.038905
v -0.030738 -0.028148 0.025571
v -0.007882 -0.024336 0.023667
v -0.030738 0.027090 0.025571
v -0.030738 -0.026239 0.038905
v 0.001643 0.021375 0.023667
v 0.001643 -0.022432 0.037000
v -0.030738 0.025182 0.038905
v -0.000262 0.023279 0.037000
v 0.001643 -0.022432 0.023667
v -0.021213 -0.028148 0.037000
v 0.001643 0.021375 0.037000
v -0.021213 0.027090 0.037000
v -0.000262 0.023279 0.023667
v -0.000262 -0.024336 0.023667
v -0.013600 -0.014814 0.038905
v -0.007882 0.023279 0.023667
v -0.000262 -0.024336 0.037000
v -0.021213 -0.028148 0.025571
v -0.021213 0.027090 0.025571
v -0.021213 0.023279 0.038905
v -0.030738 0.027090 0.037000
v -0.030738 -0.028148 0.037000
v -0.026928 -0.026239 0.038905
v -0.011695 -0.011002 0.038905
v -0.025023 0.025182 0.038905
f 218 206 223 
f 200 199 201 
f 201 199 202 
f 202 198 205 
f 201 202 205 
f 200 203 207 
f 203 204 207 
f 198 204 209 
f 204 203 209 
f 203 206 209 
f 210 206 211 
f 203 200 211 
f 206 203 211 
f 199 200 212 
f 200 207 212 
f 207 204 212 
f 198 202 213 
f 200 201 214 
f 211 200 214 
f 201 211 214 
f 212 204 215 
f 208 212 215 
f 204 213 215 
f 208 199 216 
f 199 212 216 
f 212 208 216 
f 201 210 217 
f 210 211 217 
f 211 201 217 
f 205 198 218 
f 198 209 218 
f 209 206 218 
f 201 205 219 
f 210 201 219 
f 205 210 219 
f 202 199 220 
f 199 208 220 
f 208 202 220 
f 202 208 221 
f 213 202 221 
f 208 215 221 
f 215 213 221 
f 204 198 222 
f 198 213 222 
f 213 204 222 
f 210 205 223 
f 206 210 223 
f 205 218 223 
